<?xml version="1.0" encoding="utf-8"?>
<!-- Generator: Adobe Illustrator 21.0.0, SVG Export Plug-In . SVG Version: 6.00 Build 0)  -->
<svg version="1.1" id="Layer_1" xmlns="http://www.w3.org/2000/svg" xmlns:xlink="http://www.w3.org/1999/xlink" x="0px" y="0px"
	 viewBox="0 0 1920 714.2" style="enable-background:new 0 0 1920 714.2;" xml:space="preserve">
<style type="text/css">
	.st0{fill:#5892DB;}
</style>
<polygon class="st0" points="142.5,17.7 261,12.9 306,4.5 370.5,15.3 496.5,20.1 652.5,14.1 736.5,6.9 798,12.9 951,16.5 
	1033.5,12.9 1170,21.3 1396.5,5.7 1441.5,12.9 1636.5,9.3 1761,14.1 1861.5,18.9 1920,9.3 1920,709.7 1803,700.2 1665,708.5 
	1521,699 1444.5,693 1279.5,704.9 1116,702.5 976.5,707.3 759,694.2 553.5,706.1 442.5,702.5 321,707.3 108,695.4 0,706.1 0,5.7 "/>
</svg>
