<?xml version="1.0" encoding="utf-8"?>
<!-- Generator: Adobe Illustrator 21.0.0, SVG Export Plug-In . SVG Version: 6.00 Build 0)  -->
<svg version="1.1" id="Layer_1" xmlns="http://www.w3.org/2000/svg" xmlns:xlink="http://www.w3.org/1999/xlink" x="0px" y="0px"
	 viewBox="0 0 97.3 168.5" style="enable-background:new 0 0 97.3 168.5;" xml:space="preserve">
<style type="text/css">
	.st0{fill:#FFFFFF;}
	.st1{fill:#1D1D1D;}
</style>
<g>
	<g>
		<g>
			<path class="st0" d="M49.4,4.5C31.3,7.2,22.5,16,20.2,28.9c-3.8,21.4,7.7,29.9,10.7,32.6c3,2.7,7.9,8.4,7.9,14.2
				c0,4.6-0.6,12.5,3.1,16.3c3.7,3.8,18.3,2.2,16.6-13.2c-1.7-15.3-0.3-8,3-10.3c3.3-2.3,14.5-8.1,16.4-29.6
				C79.7,17.6,69.7,1.5,49.4,4.5z"/>
			<g>
				<path class="st1" d="M49.3,3.6c-0.1,0.1,0,0.4,0.3,0.3l0.2-0.5L49.3,3.6z"/>
				<path class="st1" d="M51.7,4.2c0.4-0.2,0.8-0.7,0.6-1.1c-0.4,0.5-0.5,0.3-0.9,0.8c-0.3,0.1-0.6-0.1-0.6-0.2
					c-0.1,0.1-0.6,0-0.7,0.3c0.5,0.3,1.1,0.2,1.6-0.1C51.9,4,51.8,4.1,51.7,4.2z"/>
				<path class="st1" d="M76.1,22.7l0-0.2C76.1,22.6,76.1,22.6,76.1,22.7z"/>
				<path class="st1" d="M76.4,43.3c0-0.2,0-0.2-0.1-0.2C76.4,43.2,76.4,43.3,76.4,43.3z"/>
				<path class="st1" d="M75.3,46.7c0-0.1,0.1-0.1,0.1-0.2C75.3,46.5,75.2,46.6,75.3,46.7z"/>
				<path class="st1" d="M76.1,22.7l0,0.6C76.2,23.3,76.1,23,76.1,22.7z"/>
				<path class="st1" d="M56.5,3.1c-0.1,0-0.2,0.1-0.3,0.1L56.5,3.1C56.5,3.1,56.5,3.1,56.5,3.1z"/>
				<path class="st1" d="M72.2,14.6l-0.1-0.1c-0.1,0-0.1,0-0.2,0L72.2,14.6z"/>
				<path class="st1" d="M67.6,9.6c0.1,0.1,0.4-0.2,0.5-0.2c-0.2,0.1-0.3,0.1-0.4,0C67.7,9.4,67.6,9.5,67.6,9.6z"/>
				<path class="st1" d="M58,4.8l-0.2,0C57.8,4.8,57.9,4.8,58,4.8z"/>
				<path class="st1" d="M74.4,19c0,0-0.1,0.1-0.1,0.1C74.3,19.1,74.3,19.1,74.4,19z"/>
				<path class="st1" d="M40.8,4.6C40.9,4.6,40.9,4.6,40.8,4.6C40.9,4.6,40.9,4.6,40.8,4.6z"/>
				<path class="st1" d="M49.4,4.6l-0.1,0c0,0.1,0,0.1,0,0.2L49.4,4.6z"/>
				<path class="st1" d="M72.9,52.5C72.9,52.5,72.9,52.5,72.9,52.5C72.9,52.3,72.9,52.4,72.9,52.5z"/>
				<path class="st1" d="M43.4,91.2c0.1,0.3-0.1,0.3-0.3,0.3c-0.2,0-0.4,0-0.2,0.4C43,91.7,43.8,91.7,43.4,91.2z"/>
				<path class="st1" d="M56.7,3.2c0.1,0,0.2,0,0.3,0C56.9,3.2,56.8,3.1,56.7,3.2z"/>
				<path class="st1" d="M42.9,91.8L42.9,91.8L42.9,91.8C43,91.9,42.9,91.9,42.9,91.8z"/>
				<path class="st1" d="M64.7,64.1c0.1,0,0.1,0,0.2,0C64.9,64.1,64.9,64.1,64.7,64.1z"/>
				<path class="st1" d="M72,56.2l-0.2,0.2C71.9,56.3,71.9,56.3,72,56.2z"/>
				<path class="st1" d="M60.5,67.7c-0.1,0-0.1,0-0.2,0c0,0,0,0,0,0C60.4,67.7,60.4,67.7,60.5,67.7z"/>
				<path class="st1" d="M56.8,71.9c0,0,0-0.1,0.1-0.1c0-0.1,0-0.1,0-0.2L56.8,71.9z"/>
				<path class="st1" d="M24.6,15c0.2,0,0.3,0,0.5,0C24.8,14.9,25.4,14.1,24.6,15z"/>
				<path class="st1" d="M56.5,3.3c0-0.1,0.1-0.1,0.2-0.1c-0.1,0-0.1,0-0.2,0C56.5,3.2,56.5,3.3,56.5,3.3z"/>
				<path class="st1" d="M61.3,70.6c-0.5,0.2-1.3,0.2-1.3,0.1l0,0l0.1,0l0.1,0l0.2,0C60.7,70.8,61,70.7,61.3,70.6z"/>
				<path class="st1" d="M25,57.9l-0.2-0.2C24.9,57.8,24.9,57.8,25,57.9z"/>
				<path class="st1" d="M59.7,70.9c-0.1-0.1-0.2,0-0.3,0c0,0,0.1,0,0.1,0.1C59.6,70.9,59.7,70.9,59.7,70.9z"/>
				<path class="st1" d="M25.1,15L25.1,15L25.1,15z"/>
				<path class="st1" d="M29.4,9.7c-0.8,0.6-0.1,0.7-0.1,1c-0.8,0.8-0.7,0-1.1,0.1c-0.5,0.6-0.6,1.3-1,1.6c-0.1,0-0.2,0-0.2-0.1
					c-0.1,0.4-0.6,0.8-1,1.2c-0.4,0.5-0.8,0.9-0.8,1.4c-0.1,0-0.1,0-0.2,0c0.3,0.1,0.5,0.2,0.6,0.3c-0.3,0.3-0.3,0.8-0.6,0.7
					c0.2-0.2,0.1-0.3,0.1-0.5c-0.1,0.1-0.1,0.3-0.2,0.4c-0.6,0,0.2-0.6,0-0.8c-0.5,0.8-0.7,1.9-1.2,2.3c-0.5-0.1,0.8-1.4-0.1-0.9
					l0.8-0.7c-1.1,0.2,0.4-0.5-0.6-0.4c-0.9,1.1-0.8,1.4-1.6,2.5c0.1,0.4,0.4,0.1,0.4,0.5c-0.3,0.9-0.7,1.2-1.1,1.3
					c-0.4,0.2-0.7,0.3-0.8,1.1c0.1,0.5,0.6,0.8,0,1.7l-0.4-0.5c-0.5,1.3,0.4,1-0.4,2.2c-0.1-0.3,0.2-1.1,0-0.9
					c-0.7,0.7,0.1,0.7-0.1,1.4l-0.5,0c-0.2,0.7-0.3,1.4-0.3,2.2c-0.1,0.8-0.2,1.5-0.2,2.3c-0.1-0.1-0.2-0.4-0.4-0.1c0,1-0.2,2-0.4,3
					c-0.2,1-0.4,2.1-0.6,3l0.4,0.7c0,0.2-0.2,0.3-0.3,0.1c-0.1,0.7,0.3,0,0.4,0.4c0,0.4-0.2,0.6-0.3,0.3c0.2,0.7,0.4,1.6,0.5,2.5
					c0.1,0.9,0.3,1.9,0.1,2.6l-0.1-0.3c-0.1,1.1,0.9,1.1,0.8,2.1l-0.1-0.2c0.1,0.6,0.2,1.2,0.3,1.8c0.1,0.6,0.3,1.1,0.5,1.7
					c0.3,1.1,0.7,2.1,0.7,3.1c0.6,0.1,0.8,2.2,1.5,2c0.3,1.4,0,1.1,0.7,2.9c0.3,0.4,0.9,0.3,1.3,0.8l-0.3,0.3
					c0.3,0.2,0.6,0.3,0.9,0.4l-0.1,0.7l0.5,0.4c-0.1-0.2-0.2-0.5,0-0.6c0.7,0.6,1.2,1.9,1.1,2c0.6,0.5,1.2,0.9,1.8,1.3
					c-0.2,0.1-0.5-0.1-0.7-0.2c1.1,0.5-0.2,0.5,0.9,0.9c0-0.2,0.2-0.1,0.3-0.2c0.2,0.6,1.1,1.3,1.8,1.8l-0.3,0.1c1,1,2.3,2,3.3,3.3
					c-0.3-0.5,0.2-0.8,0.5-0.4l-0.2,0.4c0.4,0.1-0.2-0.5,0.5-0.2c0.3,0.5-0.1,0.6-0.5,0.4c0.2,0.2,0.4,0.3,0.6,0.5
					c-0.1,0.1-0.2,0-0.4,0.1c0.4,0.1,0.4,1.3,1,1.4l-0.1,0.1c0.8,1.3,1.3,1.9,1.8,3c0.4-0.1,0.5,0.4,0.9,0.6c0.2,0.9,0.1,2,0.2,3
					c0.2,0.7,0.3,0.2,0.6,0.6c-0.3,0.1-0.3,1.3-0.6,0.6c0,1.5,0,1.9,0.3,3.8c0.1-0.2,0.2-0.4,0.3-0.3c0.1,0.3-0.1,0.8-0.3,0.7l0-0.1
					c0.3,1.1,0.1,2.3,0,3.6c-0.1,1.2-0.1,2.5,0.5,3.3l-0.1-0.1c0.3,0.6,0.6,1.2,0.9,1.7c0.3,0.9-0.4-0.4-0.4,0.3
					c0.3,0.5,0.6,0.9,0.8,1.3c0.2,0.4,0.4,0.8,0.6,1.1c0.2,0.4,0.4,0.7,0.7,1c0.2,0.3,0.6,0.7,1.1,0.9c0.3,0.9,1.7,1.5,3,1.7
					c1.3,0.2,2.7,0.1,3.6,0.4l-0.1-0.2c0.5-0.3,0.6,0.1,1,0.1c-0.1-0.2-0.5-0.1-0.3-0.3c2-0.4,4-1,5.8-2.1c1.8-1.1,3.5-2.6,4.6-4.5
					c0.4-0.7,0.2-1,0-1.4c-0.1-0.3-0.2-0.7,0.3-1.5l0.3,0.6c0.2-1.5,0.4-3,0.5-4.5c0-0.7,0-1.5,0-2.2c0-0.4-0.1-0.7-0.1-1.1
					c-0.1-0.3-0.1-0.7-0.2-1c0.1,0.1,0.3,0.1,0.3,0.4c0.3-0.6-0.2-2-0.5-2c0-0.4,0.2-0.1,0.3-0.4c0.1-0.6-0.5-1.3-0.3-1.7
					c0-0.1,0.1,0.1,0.2,0.2c-0.2-0.3-0.1-1.7-0.5-1.3c0.1-0.9-0.3-2.1-0.1-2c-0.2-0.1-0.2-0.3-0.1-0.4c0-0.1,0.1-0.2-0.1-0.5
					c0.3,0.3,0.5,0.5,0.6,0.5c0.1,0,0.1,0,0.2,0c0.1,0,0.3-0.1,0.4-0.1c0.2,0,0.3-0.1,0.4-0.2c-0.1,0.1,0.1,0.1,0.3,0.1
					c0.2,0,0.5,0,0.3,0.2c0.3-0.1,0.6-0.2,0.8-0.4c0.2-0.1,0.4-0.3,0.4-0.4c0.1-0.2,0.2-0.3,0.1-0.4c1.5-0.1,1.9-2,3-1.7
					c1.6-1.6,2.9-3.2,4.2-4.7c0.4,0.5-1.5,1.6-1,2c1.2-1.6,1.5-2.7,2.7-4.1c0.4-0.3,0.1,0.4,0,0.6c0.9-1.7,2.1-3,2.6-4.6
					c0,0,0,0.2,0,0.4c0.1-0.3,0.4-0.6,0.2-0.7l-0.1,0.3c-0.6,0.3-0.2-1.5-0.3-1.7c0.2,0.4,0.5,0.1,0.7-0.2c0.2-0.3,0.4-0.6,0.7,0
					c0-0.2,0-0.5-0.2-0.6c0.2-0.3,0.3-0.3,0.4,0.1c0.3-1.1-0.1-0.9,0.3-1.8c0.1,0.1,0.1,0.3,0.2,0.4c0-0.6-0.1-1.2,0.3-2
					c0.1,0.1,0.2,0,0.1,0.3c0.2-0.7,0.3-1.4,0.3-2.1c0-0.7,0.1-1.4,0.4-2.1c0.4,0.6,0.3-0.5,0.8-0.5c0-0.3,0-0.6,0-0.9L77.9,46
					c0.2-0.8-0.1-1.5,0.2-2.1l0.1,0.6l0.2-1.5L78,43.8c-0.1-0.8-0.6,0-0.3-1c0,0.2,0.1-0.8,0.4-1.1l0,0c-0.1-0.4-0.2-0.8,0-1.4
					c0.2-0.1,0.5,0.2,0.7,0.1c-0.4-0.4,0.1-1.8-0.3-2.3c0.1,0.2,0.4,0.2,0.4,0.1l-0.3-0.3c0.1-0.4,0.2-0.4,0.4-0.3
					c0.1-1.1-0.7,0.3-0.3-1c0,0.1,0.1,0.1,0.1,0.3c0.1-0.6,0.1-1.3,0-1.9c0-0.6-0.1-1.2,0-1.8c0.5-0.4,0.1,1,0.6,0.6
					c-0.1-1.7-0.7-3.5-0.8-5.2l0,0.3c-0.8-0.1,0.2-1.3-0.2-2.1c0.1,0.2,0.4,0.2,0.3,0.2c-0.1-1.2-0.5-2.3-1.2-3.9l0.2,0.2
					c0-0.7-0.4-1.7-0.5-2.5c-0.2-0.2-0.4-0.6-0.5-0.2c0.1-1.2-0.4-2.2-1-3.1c-0.3-0.4-0.6-0.9-0.8-1.3c-0.3-0.4-0.4-0.9-0.5-1.5
					c0.1,0.2,0.4,0.4,0.3,0.3c-0.3-0.5-0.7-0.9-1-1.4c-0.2,0.3,0,0.3-0.1,0.7c-0.3-0.1-0.6-0.4-0.9-0.7c0.6,0.5,0.4-0.3,0.4-0.7
					c0,0.1-0.2,0.1-0.3,0.1c-0.1-1-0.6,0.2-1-0.9L72,12c-0.4-0.3-0.8-0.5-1.1-0.9c0.1-0.4,0.5,0.2,0.7,0.1c-0.5-0.5-1.4-0.5-1.6-1.2
					c0.3,0.1,0.6,0.4,0.8,0.6c-0.2-0.8-0.3-0.8-0.6-1.2l0,0c-0.2-0.3-0.5-0.6-0.7-0.9c0.1,0.1,0.1,0.2,0.2,0.3
					c-1.3,0.2-1.5-1-2.8-1.2c1.2,0.2,0.3-0.2,0.6-0.5c-0.2-0.3-0.5-0.6-0.3-0.7c-0.7,0-0.7-0.7-1.6-0.7c0-0.1-0.5-0.3-0.3-0.5
					c-0.7-0.2,0.1,0.3-0.1,0.4c-1.2-0.1-2.2-1.6-4-1.5c-1.4-0.1-1.7,0.3-3,0.3c-0.4-0.3,0.4-0.4,0.4-0.4c-0.6-0.3-1.2-0.3-1.8-0.3
					c0.1-0.1,0-0.2-0.2-0.4c-0.5,0-0.4,0.5-1.1,0.2c0.1-0.1,0.3-0.4,0.6-0.5c-0.6,0.1-1.3,0.3-1.9,0.4c-0.2-0.2,0.4-0.4,0.6-0.5
					c-0.7,0.1-1.9,0.2-2.1,0.6c0.2,0,0.3,0.1,0.5,0.1c-0.3,0-0.1-0.3,0-0.4c0.6-0.3,0.9,0.1,0.9,0.3l-0.4,0.1
					C54.1,4.2,54.5,4.1,55,4c0.5-0.1,1.1-0.3,1.5-0.2l-0.4,0.5c0.3-0.1,0.6-0.3,1-0.4c0.2,0.2,0.3,0.5-0.2,0.5
					c0.6,0.4,0.6-0.1,1.1,0.2c0.1,0.1,0,0.1,0,0.1c0.2,0,0.4,0,0.6-0.1c-0.1,0.1,0,0.4-0.3,0.3c0.5,0.3,1,0.2,1.3,0.2
					c0.4,0,0.7,0,0.8,0.2l-0.1,0c1.5,0.2,0.3-0.4,1.5-0.5c0.1,0.4,0.3,0.8,0.4,1.2l0.3-0.3c0.1,0.1,0.4,0.2,0.3,0.3
					c0.6,0,0-0.2,0.4-0.3c0.6,0.6,2,0.7,1.8,1.4c0.4-0.2-0.5-0.5,0.3-0.4c-0.2,0.7,0.9,0.4,1.3,1c-0.4,0.2-0.8-0.3-0.4,0.3
					c0.7-0.3,1,0.8,1.5,1.1c0.2-0.2,0.4,0,0.8,0.2c0.3,0.3,0.7,0.7,1.1,1c-0.1,0.1,1.1,1.5,1.5,2.3l-0.1,0c0.5-0.2,1,0.6,1.5,1.1
					c-0.3,0.1-0.4,0.1-0.8-0.1c0.1,0.2,0.3,0.3,0.4,0.5c0.2,0,0.4,0.2,0.7,0.5L72.3,15c0.2,0.3,0.5,0.6,0.8,1
					c0.3,0.4,0.6,0.8,0.7,1.3c0.3-0.1,0.5-1.2,1.2-0.3c-0.2,0.1-0.4,0.3-0.6,0.1c0.1,0.1,0.3,0.3,0.3,0.5l-0.5-0.3
					c0.1,0.5,0.4,0.1,0.5,0.5c-0.2,0.1-0.1,0.3-0.3,0.4c-0.1-0.1,0-0.4-0.2-0.5c0.2,0.4,0.2,1,0.1,1.2c0.1-0.1,0.3-0.1,0.5,0.2
					c0.3,0.8-0.2,0.4-0.1,0.9c0.2,0.1,0.2,0.7,0.6,0.6c0.1,0.2-0.1,0.3-0.2,0.5c0.3,0.4,0.6,1.9,0.9,1.4l0-0.1c0,0,0,0,0,0.1l0,0
					l0,0c0.8,1.3,0.5,3,0.9,4.4l-0.1,0c0.3,0.8,0.3,1.9,0.7,2.5c0,0.3-0.2,0.6-0.4,0.5c0.1,0.6,0.3,0.7,0.1,1.7
					c-0.3-0.6-0.2,0.2-0.2-0.7c-0.1,0.9-0.3,1.1,0.1,2c-0.3-0.3-0.4,0.6-0.3,1.1l0.2-0.6c0.1,0.5,0,0.9,0,1.3l-0.5-0.2
					c-0.6,1.7,0.8,3.2-0.2,4.5c0.3,0.5,0.3-0.9,0.6-0.5c-0.1,0.8-0.9,1.6-0.9,1.8c-0.4,1.1,0.5,1.1,0.2,2.2c0.2-0.1,0.6-0.2,0.6,0.7
					c-0.2,0.8-0.8,0.9-0.9,0.3c0-0.2,0.1-0.3,0.1-0.3c0-0.3,0-0.6-0.2-0.3l0.1,0.1c-0.2,0.4-0.4,1.4-0.6,1.1c0,0.6,0.2,0.3,0.4-0.1
					c-0.4,1-0.3,1.6-0.7,2.6c0.1-0.1,0.4-0.2,0.3-0.1c-0.6,1.5,0.1,0.7-0.1,1.8c-0.4,0.5-0.5-0.4-0.6,0.7c-0.3,0.6-0.4,0-0.5-0.3
					c0,1-0.8,1.6-1,2.1l0-0.5c0,0.3-0.1,0.5-0.2,0.8l0.4-0.2c-0.1,0.3-0.2,0.5-0.3,0.4c0.1,0.4,0.6,0,0.7,0.6
					c-0.3,0.3-0.3,1.2-0.8,1.1c0.6-1.1-0.4,0-0.1-1c0,0.2-0.1,0.4-0.3,0.7c-0.1,0-0.1-0.1-0.1-0.2c-0.8,0.9,0.3,0.7-0.3,1.8
					c-0.1-0.2-0.5,0.1-0.6,0.2c0.2-0.4,0.5,0,0.4,0.5c-0.5,0.6-0.3,0.8-0.5,1.2l0.3-0.4c0.1,0.2,0,0.6-0.3,1.1
					c-0.2-0.1,0.1-0.5,0-0.4c0,0.7-1.1,0.9-1.3,1.8c-0.4,0.2-0.4-0.2-0.7,0c-0.3,0.9-0.8,0.6-1.2,1.6c0.4,0,0.4-0.1,0.2,0.6
					c0.3-0.5,0.6-0.9,0.8-1.4l-0.2,1.1c0.3-0.4,0.5-1,0.7-1.2c-0.1,0.6-0.1,0.5,0.2,0.4c-0.4,0.1-0.5,0.4-0.7,0.8
					c-0.1,0.3-0.3,0.7-0.7,0.9l-0.6-0.5c-0.5,0.3-0.8,0.8-1.1,1.3c-0.3,0.5-0.6,1-1.3,1.5l0.5-0.2c0.1,0.4-0.7,0.7-1,1.1
					c-0.1-0.2-0.4-0.1-0.7-0.1c0.1,0.1-0.9,0.7-0.7,1.2l-0.8,0.1c-1.1,0.6-0.7,1.4-1.8,2c0.2-0.4-0.4-0.3,0.1-0.9
					c-0.3,0.2-0.7,0.4-0.6,0.6c-0.1,0-0.2,0.1-0.3,0.1c-0.1,0.1-0.2,0.2-0.2,0.3c-0.1,0.2-0.3,0.3-0.4,0.2c-0.1,0.1,0,0.4-0.5,0.4
					c-0.1-0.1,0-0.1,0-0.1c0,0.1-0.2,0.1-0.4,0.1c-0.2,0-0.2,0.1,0,0.3c-0.4-0.3-0.9-0.5-1.4-0.5c-0.2,0-0.5,0.1-0.7,0.3
					c-0.2,0.2-0.2,0.5-0.3,0.7c-0.1,0.5-0.1,1.1-0.1,1.6c0,0.3,0,0.5-0.1,0.7c0,0.2-0.1,0.4-0.2,0.5c0.1,0.9,0.3,2,0.4,2.8
					c-0.1,0-0.1,0-0.1-0.1C57,75.6,58,75,57.8,76.3c-0.4,0.7-0.3-0.7-0.4-0.2c-0.9,0.3,0.3,1.5-0.1,2.4l-0.1-0.2
					c-0.1,0.4,0,0.7,0.2,1.1c0.2,0.4,0.3,0.9,0.3,1.4c0,0-0.1,0-0.1,0c0.5,0.7,0.5,2,0.5,3.1c-0.3-0.4-0.1-0.5-0.5-0.3
					c0,0.4,0.6,0,0.5,0.9c-0.2,0.3-0.6,0.8-0.9,0.8c0.1-0.3,0.1-0.5,0.2-0.8c-0.6,0.3-0.2,1-0.5,1.4l-0.2-0.1
					c-0.2,0.6-0.1,0.9-0.2,1.3c0,0.4-0.1,0.7-0.4,1.3l0.2,0c0,0.9-0.6,0.4-0.7,1.2l-0.5-0.2c-0.2,0.4-0.8,1.6-1.5,2.2
					c0.2-0.6,0.8-1.4,1.1-2c-0.3,0.3-1.1,1.1-1.2,1.4c0.1-0.2,0.2-0.4,0.4-0.4c-0.2,0.7-0.7,1.3-1.6,1.8c-0.2-0.5-0.7-0.3-1.4-0.1
					c-0.7,0.2-1.5,0.4-1.9,0c-1.5,0.6-3.2,0.1-4.7-0.5c0.2,1-0.5-0.2-0.7,0.6c-0.4-0.2-0.5-0.3-0.5-0.3c-0.1-0.2-0.2-0.4-0.3-0.6
					l-0.2-0.6c0-0.4,0.4,0.2,0.5,0c-0.5-0.7,0-0.5-0.1-1c-0.2,0.2-0.5,0-0.7-0.5c0,0.3,0,0.5,0,0.8c-1-0.9,0.1-1.2-0.8-2.3
					c0.1,0.1,0.2,0.2,0.4,0.3c-0.4-0.6-0.6-2.4-1.4-3c0.1-0.1,0.3-0.3,0.4,0c-0.1-1.7-1-3.9-0.6-5.3l0.2,0.1c-0.1-0.3-0.4-0.6-0.2-1
					c0.1,0,0.2,0.1,0.2,0c-0.1-0.2-0.3-0.9-0.2-1.4l0.2,0.4c0.1-0.9,0-1.6-0.2-2.3c-0.2-0.8-0.5-1.4-0.8-2.2c0.3-0.1,0.4-0.5,0.4-1
					c0-0.5-0.1-1.1-0.2-1.5l0.1,0c-0.8-2.2-2.1-3.3-3.5-4.9c-0.2-1.4-2.4-3.5-3.7-5.2c0.2,0.3-0.4,0.3-0.7,0.1
					c-0.3-0.4-1.2-0.6-0.8-0.9l0.1,0.1c0.1-0.6-0.7-1.1-1.2-1.6l-0.6,0.4c-0.3-1-1.2-1.8-2-2.5c-0.8-0.8-1.5-1.5-1.4-2.2
					c-0.4-0.3-0.7-0.7-1.1-1l0.3-0.2c-0.3-0.5-0.5-0.9-0.7-1.4c-0.2-0.4-0.4-0.9-0.8-1.5l0.4,0.2c-0.4-0.7-1.5-0.5-1.8-1.2l0.4-0.4
					c-0.1-0.3-0.2-0.7-0.3-1.1l-0.2-1.1c-0.2-0.7-0.4-1.4-0.7-2.1c0.1,0,0.3,0,0.3,0.2c-0.1-0.7-0.1-2.7-0.8-2.3
					c0.5-0.1-0.1-1.5-0.4-2.3l0.4,0.1c-0.6-0.6-0.6-0.7-0.8-1.6c0-0.2,0.3-0.2,0.2,0.1c0.2-0.8-0.4-0.6-0.2-1.5l0.2,0.3
					c0-0.8-0.1-0.7-0.4-1.2c-0.1-0.5,0.2-1.5,0.5-1.6c-0.2-0.1-0.5-0.6-0.3-1c0.1-0.1,0.2,0.1,0.2,0.2c0.3-1.3-0.2-2,0.3-2.9
					c0.1,0,0.2-0.1,0.2-0.1c-0.2,1-0.3,1.9-0.3,1.8c0.3,0,0.5-0.8,0.9-0.1c-0.2-0.7-0.6-1.9-0.3-2.7c0,0,0.1-0.1,0.1-0.1l0,0.1
					c0.1-0.2,0-0.4,0-0.5c0.1-0.2,0.2-0.4,0.2-0.6c0.3,0,0.4-0.9,0.5-1.3c-0.4-0.1-0.2-0.6-0.6-0.2c0-0.1,0,0.1,0,0.4
					c0,0.1,0,0.1,0,0.2l0,0c-0.1,0.3-0.1,0.6-0.2,1c-0.1-0.4-0.2-0.7,0.1-1.1c-0.2-0.3-0.4-0.6-0.5-0.7c0.7-0.4,1.3-1.4,1.6-1.4
					c0.2-1.3,0.9-2.8,0.6-3.8c0.1-0.4,0.4-0.3,0.5-0.4c0,0.2-0.1,0.4-0.1,0.6c0.1-0.4,0.3-0.9,0.5-1.3c0.2-0.4,0.3-0.8,0.1-1
					c0.7-0.7,0.1,0.7,0.7-0.4l0,0.2c0.5-0.4,0.8-0.8,1.1-1.3c0.3-0.5,0.4-1,0.7-1.4c0.2-0.5,0.5-1,0.8-1.4c0.4-0.4,0.9-0.8,1.5-1.1
					c-0.2,0.1-0.3,0.1-0.4,0.1c1.3-0.9,2.5-1.9,3.8-2.9c1.3-0.9,2.7-1.7,4.3-2c0.9-0.2,0.8-0.6,1.2-1l0.3,0.3l0.7-0.8
					c1.1-0.8,2.5,0.2,3.9-0.9l-0.3-0.2c0.6-0.1,1.8-0.6,1.8-0.3c0-0.1,0.1-0.3,0.4-0.2l0.1,0.2C45.6,6,46,5.7,46.5,5.5
					c1.2,0,0,0.9,1.6,0.6c0.6-0.2,1.6-0.9,1.4-1c-0.2,0-0.7,0-0.7-0.2l0.5-0.2c0-0.6,0.4-1.4-1.1-1.5l-0.9,0.6l-0.4-0.2l0.8-0.2
					c-0.5-0.2-0.8,0.1-1.1,0.3c-0.1-0.1-0.3-0.2-0.5-0.3c-0.3,0.2-0.6,0.5-0.8,0.8c-0.2-0.2,0.3-0.6-0.3-0.6
					c-0.4,0.4,0.6,0.4-0.2,0.8c-0.5-0.2-0.5-0.4-0.9-0.1c-0.1-0.1,0-0.3,0.2-0.4c-0.4,0.3-1.3,0.4-1.4,0.8c-0.6-0.2-1.6,0.6-1.7,0
					c-0.1,0.2-0.7,0.7-1.1,0.9c0.6-1-1.7,0.6-1.7-0.2c-0.2,0.4-0.7,0.7-1.3,0.9c-0.6,0.3-1.2,0.6-1.6,1c0-0.1,0.1-0.2,0.2-0.2
					c-0.6,0.2-0.9,0.1-1.3,0.2c0.2,0.5-0.6,1.1-0.9,1.6c-0.9-0.1,0.1-0.8-0.4-1.1c0.2,0.4-1,1-0.6,1.2c-0.7,0.1-0.5,0.2-1,0
					c0.3,0.6-0.4,0.4-0.6,1c-0.9,0.2-0.6-0.4-1.2,0.3C28.9,10.4,29.4,9.7,29.4,9.7z M19.1,29.4L19.1,29.4c0-0.2,0-0.4,0-0.5
					C19.1,29,19.1,29.2,19.1,29.4z M18.9,31.2c0-0.2,0.1-0.5,0.1-0.8c0.1,0,0.3,0,0.2,0.2C19.2,30.6,19,31,18.9,31.2z M22.1,27.9
					c0,0.3-0.1,0.4-0.2,0.4c0-0.1,0-0.3,0.1-0.5c0,0,0,0,0,0C22,27.8,22.1,27.9,22.1,27.9z"/>
				<path class="st1" d="M21.7,27.3c0,0,0-0.1,0-0.1c0,0-0.1,0.1-0.1,0.1c0,0,0.1,0.1,0.1,0.1C21.7,27.4,21.7,27.4,21.7,27.3z"/>
				<path class="st1" d="M76.1,22.5L76.1,22.5C76.1,22.5,76.1,22.4,76.1,22.5C76.1,22.4,76.1,22.4,76.1,22.5z"/>
				<polygon class="st1" points="23.5,56.3 23.6,56.2 23.5,56.1 				"/>
				<path class="st1" d="M73.1,12.9c0,0,0-0.1,0-0.2C73.1,12.7,73.1,12.8,73.1,12.9z"/>
				<path class="st1" d="M70.2,9.4l-0.4-0.5C70,9.1,70.1,9.3,70.2,9.4z"/>
				<path class="st1" d="M67.7,7.1c-0.1,0-0.1,0.1-0.1,0.1l0,0L67.7,7.1z"/>
				<path class="st1" d="M74.3,57.2c0,0,0,0.1,0,0.1C74.2,57.7,74.3,57.5,74.3,57.2z"/>
				<path class="st1" d="M78.1,41.7c0,0.2,0.1,0.4,0.1,0.5C78.3,41.9,78.4,41.7,78.1,41.7z"/>
				<path class="st1" d="M61.5,70.6L61.5,70.6c-0.1,0-0.1,0-0.2,0.1L61.5,70.6z"/>
				<path class="st1" d="M78.2,42.9c0.1-0.3,0.1-0.5,0.1-0.7C78.2,42.4,78.2,42.7,78.2,42.9z"/>
				<path class="st1" d="M53.4,3l-0.2,0c0,0,0,0,0,0.1L53.4,3z"/>
				<path class="st1" d="M53.3,3l-0.2,0C53.2,3.1,53.2,3.1,53.3,3z"/>
				<path class="st1" d="M52.7,3.2l0.4-0.1C52.9,3.1,52.8,3.1,52.7,3.2z"/>
				<path class="st1" d="M58,3.4l0.1-0.1C58,3.3,58,3.3,58,3.4z"/>
				<path class="st1" d="M59.4,3.6c-0.3-0.1-0.8-0.5-1.2-0.4l-0.1,0.1C58.3,3.1,59,3.8,59.4,3.6z"/>
				<path class="st1" d="M64.2,7c-0.3-0.2-0.6-0.4-0.9-0.5c0.1,0.2,0.3,0.5-0.2,0.3C64.1,7.7,62.9,6.3,64.2,7z"/>
				<path class="st1" d="M66.9,8.9c-0.5-0.3-0.1,0.2-0.2,0.2C67.1,9.2,67.2,9.2,66.9,8.9z"/>
				<path class="st1" d="M77.1,30.1l-0.4,0C76.8,30.5,76.9,30,77.1,30.1z"/>
				<polygon class="st1" points="79,34.8 79.2,34.4 78.9,34.1 				"/>
				<polygon class="st1" points="76.4,37.5 76.4,37.3 76.5,38.1 				"/>
				<path class="st1" d="M56.4,70.5c0.1-0.1,0.3-0.1,0.4-0.1C56.7,69.9,56.2,69.6,56.4,70.5z"/>
				<path class="st1" d="M55.9,88c-0.3,0-0.6,0.3-0.6,0.7C55.5,88.4,55.8,88.2,55.9,88z"/>
				<polygon class="st1" points="29.3,57.7 29.6,57.9 29.1,57.5 				"/>
			</g>
		</g>
		<g>
			<path class="st1" d="M90.9,164.5c0.1,0.1,0.4,0.1,0.3-0.3l-0.5-0.3L90.9,164.5z"/>
			<path class="st1" d="M91.7,162.1c-0.2-0.4-0.6-0.9-1-0.6c0.4,0.4,0.3,0.5,0.8,1c0.1,0.4-0.1,0.6-0.3,0.6c0.1,0.1-0.1,0.6,0.2,0.8
				c0.4-0.5,0.4-1.1,0.1-1.7C91.5,161.9,91.7,162,91.7,162.1z"/>
			<path class="st1" d="M85.9,128.4l0.2,0.2C86,128.5,85.9,128.4,85.9,128.4z"/>
			<path class="st1" d="M68.8,117.7c0.1,0.2,0.1,0.2,0.2,0.2C68.9,117.7,68.8,117.6,68.8,117.7z"/>
			<path class="st1" d="M68.5,114c0,0.1,0,0.1,0,0.2C68.5,114.1,68.5,114,68.5,114z"/>
			<path class="st1" d="M85.9,128.4l-0.4-0.5C85.4,128,85.7,128.2,85.9,128.4z"/>
			<path class="st1" d="M90.6,157.2c0,0.1,0.1,0.2,0.1,0.3C90.7,157.5,90.7,157.4,90.6,157.2C90.7,157.3,90.7,157.2,90.6,157.2z"/>
			<path class="st1" d="M91.7,136.4l0.1,0.2c0.1,0,0.1,0.1,0.2,0.1L91.7,136.4z"/>
			<path class="st1" d="M93,143.9c0-0.2-0.4-0.2-0.6-0.3c0.2,0.1,0.2,0.2,0.3,0.4C92.8,144,92.9,144,93,143.9z"/>
			<path class="st1" d="M92.2,155.6l0.1,0.2C92.2,155.7,92.2,155.7,92.2,155.6z"/>
			<path class="st1" d="M89.3,131.4c0,0,0.1-0.1,0.1-0.1C89.3,131.3,89.3,131.3,89.3,131.4z"/>
			<path class="st1" d="M7.4,151.8C7.4,151.8,7.3,151.8,7.4,151.8C7.4,151.8,7.4,151.9,7.4,151.8z"/>
			<path class="st1" d="M5.5,160.3l0-0.1c-0.1,0-0.1,0-0.2,0L5.5,160.3z"/>
			<path class="st1" d="M67.7,107.3C67.7,107.3,67.7,107.3,67.7,107.3C67.8,107.5,67.8,107.4,67.7,107.3z"/>
			<path class="st1" d="M42.4,67.3c0.7,0.3-1.1,0.4-0.1,0.8C42.2,68,43.3,67.5,42.4,67.3z"/>
			<path class="st1" d="M90.7,157.1c0-0.1,0-0.2,0-0.3C90.7,156.9,90.7,157,90.7,157.1z"/>
			<path class="st1" d="M42.3,68.1L42.3,68.1l0.1,0C42.4,68.2,42.3,68.2,42.3,68.1z"/>
			<path class="st1" d="M65,91.9c-0.1,0-0.1,0.1-0.1,0.2C64.9,92.1,65,92.1,65,91.9z"/>
			<path class="st1" d="M66.3,103.5l0-0.3C66.3,103.3,66.3,103.4,66.3,103.5z"/>
			<path class="st1" d="M64.2,87.2c0.1-0.1,0.2-0.1,0.3-0.3c0,0-0.1,0-0.1,0C64.4,87,64.3,87.1,64.2,87.2z"/>
			<path class="st1" d="M66.1,80.5c0,0,0,0.1,0,0.1c0,0.1,0,0.1,0.1,0.2L66.1,80.5z"/>
			<path class="st1" d="M9.7,134C9.5,134,9.4,134,9.2,134C9.5,134.1,9.2,134.9,9.7,134z"/>
			<path class="st1" d="M90.9,157.2c-0.1,0-0.1-0.1-0.2-0.2c0,0.1,0,0.1,0,0.2C90.8,157.3,90.8,157.3,90.9,157.2z"/>
			<path class="st1" d="M62,85c0.2-0.2,0.3-0.4,0.5-0.6C62.4,84.6,62.2,84.8,62,85z"/>
			<path class="st1" d="M34.3,100.7l0,0.2C34.3,100.8,34.3,100.7,34.3,100.7z"/>
			<path class="st1" d="M63.2,82.5c0.2-0.1,0.2-0.2,0.3-0.4c0,0-0.1-0.1-0.1-0.1C63.3,82.2,63.3,82.4,63.2,82.5z"/>
			<path class="st1" d="M9.2,134L9.2,134L9.2,134z"/>
			<path class="st1" d="M8.1,140c0.2-0.9-0.4-0.5-0.7-0.8c0.1-1.1,0.5-0.4,0.8-0.7c0-0.7-0.3-1.3-0.1-1.7c0.1,0,0.2-0.1,0.2,0.1
				c-0.1-0.4,0.1-0.9,0.3-1.4c0.2-0.5,0.4-1,0.4-1.5c0.1,0,0.1,0,0.2,0c-0.3,0-0.5-0.1-0.7-0.2c0.2-0.4,0.1-0.8,0.5-0.8
				c-0.1,0.2,0,0.3,0,0.5l0.1-0.4c0.6-0.1-0.1,0.6,0.2,0.8c0.2-0.8,0.5-1.8,1-2.2c0.4,0.2-0.7,1.3,0.1,0.9c-0.2,0.2-0.5,0.4-0.7,0.7
				c0.5-0.1,0.4,0,0.3,0.1c-0.1,0.1-0.2,0.3,0.3,0.2c0.8-0.9,0.6-1.3,1.5-2c0-0.4-0.3-0.2-0.3-0.6c0.2-0.4,0.5-0.6,0.7-0.7
				c0.2-0.1,0.5-0.1,0.6-0.1c0.4,0,0.7,0.1,1-0.5c0.1-0.4-0.1-1,0.9-1.3l0,0.6c1.1-0.6,0.2-1,1.6-1.3c-0.1,0.3-0.8,0.6-0.6,0.6
				c0.9,0,0.4-0.6,1-0.8l0.3,0.4c1.1-0.7,2.4-1.5,3.8-2c0,0.2-0.2,0.4,0.1,0.4c1.7-0.8,4-0.8,6.3-1.7c0.2-0.3,0.4-0.6,0.6-0.8
				c0.2-0.1,0.4-0.1,0.3,0.1c0.8-0.5-0.1-0.2,0.1-0.7c0.4-0.4,0.7-0.3,0.5,0c0.2-0.4,0.5-0.8,0.7-1.3c0.2-0.5,0.4-1,0.6-1.5
				c0.3-1,0.5-1.9,0.9-2.6l0.1,0.3c0.4-1-0.5-1.4,0.1-2.3l0,0.2c0.7-2.3,0.8-4.9,1.7-6.5c-0.5-0.4,0.7-2.2-0.1-2.5
				c0.6-1.2,0.7-0.8,1.3-2.6c0.1-0.5-0.4-0.8-0.4-1.4l0.4,0.1l-0.3-0.9l0.6-0.4l0-0.6c-0.1,0.2-0.3,0.5-0.4,0.4
				c0-0.9,0.6-2.1,0.9-2.1l0-2.2c0.2,0.1,0.2,0.4,0.2,0.7c-0.3-1.2,0.5-0.1,0.2-1.2c-0.1,0.1-0.2-0.1-0.3-0.2
				c0.3-0.5,0.5-1.6,0.5-2.5l0.3,0.2c0.3-1.6,0.4-3.3,0.6-5.1c-0.2,0.6-0.7,0.4-0.7-0.1l0.5-0.1c-0.2-0.4-0.2,0.5-0.5-0.2
				c0.2-0.9,0.6-0.7,0.7,0l0-0.9l-0.2-0.4c0.1-0.1,0.3,0.2,0.5,0.2c-0.2-0.2-0.2-0.5-0.3-0.8c-0.1-0.3-0.2-0.6-0.3-1
				c-0.1-0.1-0.2-0.2-0.3-0.3c-0.1-0.1-0.2-0.2-0.2-0.2C35.5,85,35.4,85,35.3,85l0.1-0.1c-0.8-1.1-1.1-1.6-1.3-2.5
				c-0.4,0-0.3-0.4-0.6-0.8c0.2-0.9,0.8-1.7,1.3-2.7c0.2-0.8-0.2-0.4-0.2-0.8c0.2,0.1,0.4-0.1,0.7-0.5c0.3-0.3,0.5-0.5,0.3,0
				c0.2-0.2,0.3-0.5,0.4-0.6c-0.1-0.7,0-1.1-0.1-1.4c-0.1-0.3-0.3-0.7-0.5-1.3c-0.1-0.1-0.3-0.2-0.4-0.3c-0.1-0.1-0.3-0.3-0.3-0.3
				c-0.1-0.1-0.3-0.2-0.4-0.4c0,0.2,0,0.4-0.1,0.4c-0.2-0.2-0.2-0.6,0-0.6l0.1,0c-0.3-0.3-0.4-0.6-0.3-1c0.1-0.3,0.3-0.6,0.6-0.8
				c0.2-0.1,0.3-0.2,0.5-0.3l0.3-0.2l0.1,0c0,0,0.1,0,0.1-0.1c0,0,0,0,0.1-0.1c0.1,0,0.2-0.1,0.3-0.1l-0.1,0l1.8-0.4
				c0.8,0.1-0.5,0.3,0.1,0.5c1.9-0.6,3.1,0.1,4.7-0.3c1.2,1,4.4-0.1,6.1,0.6l-0.1-0.2c0.4-0.2,0.5,0.1,0.8,0.2
				c0-0.2-0.5-0.2-0.2-0.4c3.7-0.3,7.5,0.4,11.3,0.6c0.7,0,0.9-0.3,1.1-0.5c0.1-0.1,0.3-0.2,0.5-0.3c0.3,0,0.3,0,0.4,0.1
				c-0.1,0.1-0.2,0.3-0.2,0.5c0-0.1,0.1-0.1,0.2-0.1c0.1,0,0,0,0.1,0.1c0.1,0.1,0.2,0.1,0.3,0.2c0.3,0.3,0.5,0.6,0.6,0.9
				c0,0.2,0,0.4-0.1,0.8c-0.1,0.2-0.2,0.3-0.3,0.5c-0.1,0.1-0.1,0.2-0.2,0.3c-0.2,0.2-0.4,0.4-0.6,0.6c0,0.2-0.1,0.5-0.1,0.7
				c0-0.3-0.1-0.3,0-0.7c-0.2,0.4-0.4,1-0.4,1.4c0,0.3,0,0.6,0,0.9c0,0.3,0.1,0.5,0.2,0.5c0,0,0,0,0,0c0.3,0.6-0.2,0.2,0,0.6
				c0.1,0.2,0.3,0.6,0.4,0.7c0.1,0.1,0.2,0.2,0.3,0.3c0.2,0.2,0.4,0.4,0.3,0.6c0,0.1-0.2-0.1-0.2-0.2c0.3,0.2,0.5,1.4,0.8,1
				c0.1,0.9,0.6,1.5,0.4,2.1c0.2,0.2,0.1,0.5,0,0.8c-0.1,0.3-0.2,0.5,0.1,0.7c-0.3-0.1-0.5,0.1-0.7,0.5c-0.2,0.4-0.4,0.8-0.4,1.1
				c0-0.2-0.4,0.2-0.5-0.1c0,0-0.3,0.3-0.5,0.5c-0.2,0.4-0.3,0.8-0.3,1c0,0.3,0,0.4,0.2,0.4c-0.1,0.2-0.2,0.4-0.3,0.6
				c0,0.3,0,0.5,0,0.8l0,0.2l0,0.1l0,0.2c0.1,0.3,0.2,0.6,0.3,0.8c0.2,0.5,0.3,1-0.1,1.4c0.7,2.1,1.2,4.1,1.6,6c-0.6,0-0.4-2.1-1-2
				c0.5,1.8,1.2,2.8,1.4,4.6c0,0.5-0.3-0.2-0.4-0.4c0.5,1.8,0.5,3.6,1.1,5.1c-0.1,0-0.2-0.2-0.2-0.3c0.1,0.3,0,0.8,0.3,0.7l-0.1-0.3
				c0.3-0.6,1.1,1.1,1.3,1.2c-0.9-0.4,0.1,1.6-1.1,1c0.1,0.2,0.3,0.4,0.4,0.4c0,0.3-0.1,0.4-0.4,0.2c0.4,1.1,0.6,0.7,0.8,1.7
				c-0.1,0-0.2-0.2-0.4-0.3c0.4,0.5,0.7,1,0.8,1.9c-0.1,0-0.2,0.1-0.2-0.2c0.3,1.5,1.2,2.4,1.3,4.2c-0.7-0.4-0.1,0.6-0.6,0.8
				l0.3,0.9l0.2-0.4c0.2,0.8,0.7,1.4,0.7,2.1l-0.4-0.5c0.1,0.5,0.3,1,0.5,1.5l0-0.9c0.5,0.7,0.6-0.3,0.8,0.8c-0.1-0.1,0,0.1,0,0.4
				c0.1,0.3,0.1,0.6,0.1,0.9l0,0c0.3,0.3,0.7,0.6,0.9,1.2c0,0.2-0.6,0.2-0.6,0.4c0.3,0.1,0.6,0.5,1.1,0.8c0.2,0.2,0.4,0.3,0.6,0.5
				c0.2,0.1,0.4,0.2,0.6,0.1c-0.2,0-0.4,0.2-0.3,0.3l0.5-0.1c0.3,0.3,0.3,0.4,0.2,0.5c1.1,0.6-0.1-0.7,1.1,0.1c-0.1,0-0.1,0.1-0.3,0
				c1.3,0.7,2.6,0.6,3.7,1.1c0.2,0.6-1-0.1-0.8,0.4c1.7,0.3,3.6,0.3,5.1,1.1l-0.3-0.2c0.5-0.6,1,0.8,1.9,0.9c-0.2,0-0.4,0.3-0.3,0.2
				c0.5,0.3,1,0.5,1.6,0.8c0.6,0.3,1.3,0.5,2,0.9l-0.3,0c0.2,0.3,0.5,0.6,0.8,0.8c0.2,0.1,0.3,0.3,0.5,0.4c0.1,0.2,0.3,0.3,0.4,0.4
				c0.3,0,0.5,0.3,0.6,0c0.1,0.3,0.2,0.5,0.3,0.8c0.1,0.2,0.2,0.5,0.4,0.7c0.3,0.4,0.7,0.8,1,1.2c0.3,0.4,0.7,0.8,0.9,1.2
				c0.2,0.4,0.4,0.9,0.3,1.4c-0.1-0.2-0.4-0.4-0.3-0.3c0.3,0.5,0.5,1,0.7,1.5c0.3-0.2,0.1-0.3,0.2-0.7c0.2,0.1,0.6,0.5,0.7,1
				c-0.4-0.7-0.5,0.2-0.6,0.5c0.1-0.1,0.2,0,0.3-0.1c-0.3,1,0.7,0,0.6,1.3l-0.2,0c0.2,0.4,0.5,0.8,0.5,1.3c-0.3,0.3-0.3-0.4-0.6-0.4
				c0.2,0.7,0.9,1.2,0.6,1.9c-0.1-0.3-0.2-0.7-0.3-1c-0.3,0.7-0.2,0.8-0.2,1.3l0,0l-0.1,1.2l0.1-0.3c1,0.8,0.3,1.7,0.9,2.9
				c-0.6-1.1-0.3-0.2-0.8-0.3c-0.1,0.3-0.3,0.7-0.4,0.6c0.3,0.5-0.3,0.9,0.1,1.6c-0.1,0-0.1,0.2-0.1,0.4c0,0.2-0.1,0.2-0.3,0.2
				c0.1,0.7,0.2-0.2,0.4-0.1c0.5,1.1-0.6,2.6,0.1,4.2c0.3,1.4,0.7,1.6,0.9,2.9c-0.2,0.4-0.5-0.4-0.5-0.4c-0.2,0.7-0.2,1.2,0,1.9
				c-0.1-0.1-0.2,0-0.4,0.2c0,0.5,0.5,0.4,0.3,1c-0.2-0.1-0.4-0.3-0.5-0.5c0.1,0.6,0.4,1.2,0.5,1.9c-0.2,0.2-0.4-0.4-0.5-0.6
				c0.1,0.7,0.2,1.9,0.6,2.1l0.1-0.5c0,0.3-0.3,0.1-0.4-0.1c-0.3-0.6,0.1-0.9,0.3-0.9l0.1,0.5c0.8-0.5-0.1-1.8-0.1-2.8l0.6,0.4
				l-0.5-0.9c0.1-0.2,0.5-0.3,0.6,0.1c0.3-0.7-0.2-0.6,0.1-1.1c0-0.1,0.1,0,0.1,0L92,155c0.1,0.1,0.4-0.1,0.3,0.3
				c0.3-1.2-0.4-1.9,0-2.3l0,0.1c-0.2-1.6-0.4-0.2-0.9-1.4l1-0.8l-0.4-0.2c0-0.2,0-0.5,0.2-0.4c-0.3-0.6-0.2,0.1-0.5-0.3
				c0.4-0.8-0.2-2.2,0.5-2.3c-0.3-0.3-0.3,0.7-0.5-0.1c0.7-0.2-0.1-1,0.3-1.7c0.4,0.2,0.1,0.9,0.5,0.2c-0.6-0.5,0.2-1.4,0-2.1
				c-0.5,0-0.3-1.3-0.6-2.4c0.1,0,0.1-0.5,0.1-1.1c0-0.6-0.1-1.4-0.1-1.9l0.1,0c-0.6-0.1-0.7-1.1-1-1.7c0.3-0.1,0.5,0,0.7,0.4
				c-0.1-0.2-0.1-0.5-0.2-0.7c-0.2-0.1-0.4-0.3-0.6-0.7l0.4,0c-0.2-0.4-0.4-0.9-0.7-1.3c-0.3-0.4-0.5-0.9-0.7-1.5
				c-0.3,0.1-0.4,1.3-1.2,0.3c0.1-0.1,0.4-0.3,0.6-0.1c-0.1-0.1-0.3-0.3-0.4-0.5l0.5,0.3c-0.1-0.5-0.4-0.1-0.6-0.5
				c0.2-0.1,0-0.4,0.2-0.4c0.1,0.1,0.1,0.4,0.3,0.5c-0.2-0.5-0.4-1.1-0.3-1.3c-0.1,0.1-0.3,0.2-0.5-0.1c-0.6-0.7,0.1-0.5-0.2-1
				c-0.3-0.1-0.6-0.6-0.9-0.4c-0.2-0.2-0.1-0.4-0.1-0.5c-0.2-0.1-0.6-0.6-1-0.8c-0.4-0.2-0.7-0.4-0.6,0l0.1,0.1c0,0,0,0-0.1,0l0,0
				l0,0c-0.4-0.2-0.7-0.4-1-0.6c-0.3-0.2-0.6-0.5-1-0.7c-0.6-0.5-1.3-1-2-1.3l0.1-0.1c-0.9-0.3-1.9-0.8-2.6-0.8
				c-0.3-0.1-0.5-0.5-0.3-0.6c-0.7-0.2-0.8,0-1.7-0.6c0.7,0-0.2-0.3,0.7,0.1c-0.8-0.4-1-0.7-2-0.6c0.4-0.3-0.5-0.6-1-0.6l0.5,0.4
				c-0.5-0.1-0.9-0.2-1.3-0.4l0.3-0.4c-0.8-0.5-1.6-0.5-2.3-0.6c-0.7-0.1-1.4-0.3-1.4-1c-0.2,0-0.1,0.2,0,0.4c0.1,0.2,0.3,0.3,0,0.4
				c-0.3-0.2-0.4-0.6-0.5-0.9c0-0.3,0-0.6-0.1-0.7c-0.1-0.4-0.3-0.5-0.6-0.7c-0.2-0.1-0.5-0.3-0.6-0.9c-0.1,0.2-0.5,0.5-0.9-0.3
				c-0.2-0.8,0.4-1.2,0.7-0.7c0.1,0.2,0,0.3,0,0.3c0.1,0.2,0.3,0.5,0.4,0.2l-0.2-0.1c0-0.4-0.2-1.5,0.1-1.3
				c-0.3-0.6-0.3-0.2-0.3,0.3c0-1.1-0.4-1.6-0.4-2.7c-0.1,0.2-0.2,0.4-0.2,0.2c-0.1-1.6-0.5-0.6-0.7-1.7c0.1-0.7,0.6,0.1,0.2-0.9
				c0-0.7,0.4-0.2,0.6,0c-0.5-0.9-0.1-1.9-0.2-2.5l0.2,0.5c-0.1-0.3-0.2-0.6-0.2-0.8l-0.3,0.4c0-0.3,0-0.6,0.1-0.6
				c-0.3-0.3-0.5,0.3-0.9-0.2c0.1-0.4-0.4-1.2,0-1.4c0.1,1.3,0.4-0.2,0.7,0.9c-0.1-0.2-0.1-0.5-0.1-0.8c0-0.1,0.1,0,0.1,0.1
				c0.2-1.3-0.6-0.5-0.8-1.8c0.3,0.1,0.4-0.4,0.3-0.6c0.1,0.5-0.4,0.3-0.6-0.1c0-0.9-0.3-0.9-0.3-1.3l0,0.5
				c-0.3-0.1-0.3-0.5-0.5-1.1c0.2-0.1,0.2,0.5,0.3,0.3c-0.5-0.6,0.2-1.5-0.2-2.4c0.1-0.4,0.4-0.1,0.5-0.5c-0.5-0.9,0.2-1.1-0.3-2.1
				c-0.3,0.4-0.2,0.4-0.6-0.3l0.5,1.7l-0.7-1c0.1,0.5,0.4,1.1,0.4,1.4c-0.3-0.5-0.3-0.4-0.5-0.2c0.4-0.8-0.5-1.4-0.3-2.2l0.8-0.1
				c0.2-1.3-0.8-2.1-0.8-3.8l-0.1,0.5c-0.4-0.2-0.2-1-0.4-1.5c0.3,0,0.3-0.3,0.5-0.6c-0.2,0.1-0.2-1.2-0.7-1.2l0.2-0.8
				c0-0.6-0.2-1-0.5-1.3c-0.1-0.2-0.2-0.3-0.3-0.5c-0.1-0.2-0.2-0.3-0.2-0.5c0,0,0-0.1,0-0.1c0.2,0.2,0.3,0.1,0.5,0.2
				c0.1,0,0.2,0.1,0.3,0.2c0-0.1,0-0.1,0-0.2c0-0.1-0.1-0.1-0.2-0.2c0.1,0,0-0.1,0-0.1c0-0.1,0-0.2,0.1-0.3c0-0.1,0-0.1,0.1-0.2
				c0.1-0.1,0.2-0.2,0.3-0.2c0-0.2-0.1-0.5,0.2-0.9c0.1,0,0.1,0.1,0.1,0.1c-0.1-0.1,0.3-0.8-0.2-0.6c0.7-0.4,1.2-1.3,1.3-2.3
				c0.2-1,0-2,0.2-2.7c-0.3-1-0.8-2.1-1.2-2.9c0.1,0,0.1-0.1,0.2,0.1c-0.3-1.1-1-0.5-1.3-1.3c0,0,0-0.1,0-0.1c0.1-0.3,0.3-0.1,0.4,0
				c0.1,0.1,0.1,0.1,0.1,0c0.1,0,0.2-0.1,0.2-0.1c0.2-0.1,0-0.3-0.2-0.4c0.1-0.1,0.2-0.3,0.4-0.3c0,0,0.1,0,0.1,0l0,0.1l0,0l0,0
				c0.1,0,0.1,0,0.2-0.2c0.1-0.2,0.3-0.4,0.4-0.7c0.2-0.5,0.4-1.2,0.6-1.9c0,0,0.1,0.1,0.1,0c-0.1-0.6-0.3-1.3-0.6-1.9
				c-0.3-0.6-0.8-1.1-1.3-1.5c0.5,0,0.5,0.3,0.6-0.1c-0.4-0.4-0.3,0.5-1.1-0.1c-0.1-0.2-0.3-0.4-0.4-0.7c-0.1-0.1-0.2-0.3-0.3-0.4
				c-0.1-0.1-0.2-0.2-0.2-0.3c0.2,0,0.4,0.1,0.6,0.2c0.2,0.1,0.4,0.2,0.5,0.4c-0.1-0.4-0.5-0.7-1-0.8c-0.4,0-1,0.1-1.2,0.1l0.1-0.2
				c-1.4,0.1-1.4,0.6-2.9,0.6l0.2,0.2c-0.8,0.5-0.7-0.3-1.5,0.1l-0.2-0.5c-0.5,0.1-1.9,0.5-2.8,0.6c0.5-0.4,1.7-0.6,2.4-0.9
				c-0.5,0-1.8,0-2.1,0.3c0.2-0.1,0.5-0.2,0.7-0.1c-0.6,0.4-1.5,0.6-2.6,0.6c0.2-1.1-2.7-0.3-3.5-1.1c-1.9,0.4-3.7-0.2-5.9-0.1
				c0.8,0.8-0.6,0-0.5,0.9c-0.5,0.1-0.7,0-0.7,0l-1.5-0.5c-0.4-0.2,0.5-0.2,0.4-0.4c-1.1-0.1-0.5-0.4-1.2-0.6c0.2,0.3-0.4,0.4-1,0.3
				l0.9,0.4c-1.5,0.5-1.3-0.7-2.9-0.3l0.5-0.3c-0.4,0.1-1.1,0.1-1.9,0.1c-0.3,0-0.6,0-0.9,0.1c-0.2,0-0.3,0.1-0.5,0.1
				c-0.2,0-0.3,0.2-0.4,0.2c-0.5,0.3-0.8,0.8-0.9,1.1c-0.2,0-0.5,0-0.2-0.3c-0.5,0.4-0.9,0.9-1.3,1.6c-0.3,0.7-0.6,1.5-0.5,2.3
				c0,0.8,0.3,1.5,0.5,2.1c0.3,0.6,0.6,1,0.8,1.4l-0.3,0c0.1,0.1,0.1,0.1,0.2,0.2c0.1,0,0.2,0.1,0.2,0.1c0.1,0,0.2,0,0.2,0.1
				c0,0,0,0,0,0.1c-0.1,0-0.2,0.1-0.2,0.1c0.1,0,0.3,0,0.5,0.1c0.1,0,0,0.1-0.1,0.2c-0.1,0-0.1-0.1-0.2-0.1
				c-0.1,0.1-0.2,0.1-0.2,0.2c0,0,0,0.1,0,0.1c0,0,0,0,0,0.1c0,0,0,0.1-0.1,0.2c-0.1,0.3-0.2,0.6-0.2,0.9c-0.1,0.6-0.2,1.2-0.4,1.9
				c-0.3-0.1-0.6,0.2-0.9,0.7c-0.3,0.5-0.4,1.2-0.5,1.7l-0.1,0c-0.1,1.4,0.4,2.6,0.9,3.5c0.3,0.5,0.6,0.9,1,1.2
				c0.2,0.2,0.4,0.4,0.6,0.5l0.3,0.3c0.1,0.1,0.1,0.1,0.2,0.1c0,0,0.1,0.1,0.1,0.1c0,0,0,0.1,0,0.1c0,0.1-0.1,0.2-0.2,0.3
				C33,88,33,88,33,88.1c0,0.2-0.1,0.4-0.1,0.6c-0.1,0.4-0.2,0.9-0.2,1.4C32.4,91,32.3,92,32,92.7c0.2-0.3,0.5,0.1,0.5,0.5
				c-0.2,0.4,0.2,1.3-0.3,1.2l0-0.2c-0.6,0.3-0.6,1.2-0.7,2l0.7,0.2c-1.3,1.8-0.4,5.2-1.5,6.1c0.1,0.5,0,1.1,0.1,1.6l-0.4-0.1
				c-0.3,1.3-0.5,1.9-0.7,3.5l-0.2-0.4c-0.2,0.9,0.9,1.3,0.8,2.2l-0.6,0.1c-0.3,1.6-1.1,3.1-0.9,4.7c-0.1,0-0.2-0.1-0.2-0.4
				c-0.2,0.7-1,2.7-0.2,2.6c-0.5-0.1-0.4,1.6-0.5,2.4l-0.3-0.2c0.2,0.7,0.4,0.9,0.1,1.7c-0.1,0.2-0.3,0-0.1-0.2
				c-0.2,0.3-0.3,0.4-0.3,0.6c0,0.2,0,0.4-0.4,0.6c0-0.1,0-0.2,0-0.4c-0.5,0.4-0.3,0.5-0.5,0.9c-0.3,0.4-1.3,0.6-1.5,0.3
				c0,0.2-0.3,0.7-0.8,0.7c-0.1-0.1,0-0.2,0.1-0.3c-1.3,0.1-1.8,1-2.9,0.9c-0.1-0.1-0.1-0.2-0.2-0.2c1.1-0.3,1.9-0.5,1.9-0.4
				c-0.1-0.3-1-0.2-0.4-0.8c-0.6,0.4-1.7,1.3-2.6,1.4c-0.1,0-0.1,0-0.1-0.1l0.1-0.1c-0.2,0-0.4,0.1-0.5,0.2c-0.3,0-0.5,0.1-0.8,0.1
				c-0.2-0.3-1.1,0.2-1.5,0.4c0.2,0.3-0.4,0.5,0.2,0.6c-0.1,0,0.1-0.1,0.3-0.2c0.1,0,0.1-0.1,0.2-0.1l0,0c0.3-0.1,0.6-0.3,1.1-0.4
				c-0.3,0.3-0.6,0.6-1.1,0.6c-0.1,0.3-0.3,0.7-0.4,0.8c-0.8-0.3-2,0-2.3-0.2c-1.2,0.9-2.9,1.8-3.2,3c-0.3,0.3-0.5,0.1-0.7,0.1
				c0.1-0.2,0.4-0.4,0.4-0.5c-0.3,0.3-0.7,0.7-1.1,1.1c-0.4,0.4-0.6,0.8-0.5,1.1c-0.9,0.6,0.1-0.7-0.9,0.3l0-0.2
				c-1.2,0.8-1.7,2-1.9,3.2c-0.3,1.2-0.5,2.3-1.5,3.6c0.1-0.2,0.2-0.3,0.3-0.3c-0.8,1.6-1.1,3.3-1.2,5.1c-0.1,1.8-0.2,3.5-0.5,5.2
				c-0.1,0.5,0,0.8,0.1,1c0.1,0.2,0.3,0.4,0.4,0.6c-0.1,0-0.3,0.1-0.4,0.2l0.5,1c0.4,1.4-1,2.4-0.4,4.1l0.3-0.2
				c-0.1,0.6,0.2,2-0.2,1.9c0.1,0.1,0.3,0.2,0.1,0.5l-0.2,0l0.4,1.5c-0.2,1.2-0.9-0.2-0.9,1.6c0.1,0.6,0.6,1.8,0.8,1.6
				c0-0.3,0.1-0.7,0.4-0.7l0.1,0.6c0.6,0.1,1.3,0.6,1.8-0.9l-0.4-1l0.3-0.3l0,0.9c0.3-0.5,0-0.8-0.1-1.1c0.2-0.1,0.3-0.2,0.3-0.4
				l-0.6-1c0.3-0.1,0.5,0.4,0.6-0.2c-0.3-0.5-0.6,0.4-0.8-0.3c0.3-0.5,0.5-0.3,0.3-0.9c0.2-0.1,0.3,0,0.3,0.3
				c-0.2-0.5-0.1-1.3-0.4-1.6c0.4-0.5-0.1-1.7,0.5-1.7c-0.1-0.2-0.5-0.9-0.5-1.4c0.7,0.9,0-1.7,0.8-1.5c-0.2-0.2-0.3-0.4-0.3-0.6
				l0-0.1l0-0.2c0-0.1,0-0.2-0.1-0.3c0-0.1-0.1-0.3-0.1-0.4c-0.1-0.6-0.1-1.2-0.3-1.8c0.1,0.1,0.2,0.2,0.1,0.3
				c0.1-0.6,0.2-0.8,0.4-1.1c-0.5-0.1-0.6-1-0.9-1.6c0.6-0.7,0.6,0.5,1.1,0.3c-0.4,0-0.3-1.3-0.7-1.1c0.4-0.5,0.2-0.5,0.7-0.7
				c-0.7-0.2-0.1-0.5-0.4-1c0.5-0.7,0.7-0.1,0.6-1C8,139.2,8.1,140,8.1,140z M20.8,125.6L20.8,125.6c-0.2,0.1-0.3,0.1-0.4,0.2
				C20.5,125.7,20.6,125.6,20.8,125.6z M22.6,125.1c-0.2,0-0.5,0.1-0.8,0.2c-0.1-0.1-0.1-0.3,0.1-0.3
				C21.9,125.1,22.3,125,22.6,125.1z M18,123.7c0.3-0.2,0.4-0.1,0.5-0.1c-0.1,0.1-0.3,0.1-0.5,0.2c0,0,0,0,0,0.1
				C18,123.8,18,123.7,18,123.7z"/>
			<path class="st1" d="M17.7,124.3c0,0-0.1,0-0.1,0.1C17.6,124.4,17.7,124.4,17.7,124.3c0.1,0,0.1,0,0.2-0.1
				C17.8,124.3,17.7,124.3,17.7,124.3z"/>
			<path class="st1" d="M86.1,128.6L86.1,128.6C86,128.6,86.1,128.6,86.1,128.6C86.1,128.6,86.1,128.6,86.1,128.6z"/>
			<polygon class="st1" points="34.1,102.8 34,102.7 34.1,102.9 			"/>
			<path class="st1" d="M90.3,137.9c0,0-0.1,0.1-0.1,0.2C90.2,138,90.2,138,90.3,137.9z"/>
			<path class="st1" d="M91,142.1l-0.1,0.6C90.9,142.5,90.9,142.3,91,142.1z"/>
			<path class="st1" d="M90.9,145.5c0.1,0,0.1,0.1,0.2,0.1l0,0L90.9,145.5z"/>
			<path class="st1" d="M63.7,104.2c0,0,0-0.1,0-0.1C63.6,103.8,63.6,104,63.7,104.2z"/>
			<path class="st1" d="M68,120c-0.1-0.1-0.3-0.3-0.4-0.5C67.7,119.8,67.8,120.1,68,120z"/>
			<polygon class="st1" points="62,85.1 62,85.1 62,85 			"/>
			<path class="st1" d="M67.4,118.8c0,0.3,0.1,0.5,0.2,0.8C67.6,119.3,67.5,119,67.4,118.8z"/>
			<path class="st1" d="M90.6,160.3l0,0.2c0,0,0,0,0.1,0L90.6,160.3z"/>
			<path class="st1" d="M90.6,160.5l0,0.2C90.7,160.6,90.7,160.5,90.6,160.5z"/>
			<path class="st1" d="M90.8,161l-0.1-0.4C90.7,160.8,90.7,161,90.8,161z"/>
			<path class="st1" d="M90.8,155.8l-0.1-0.1C90.7,155.7,90.7,155.8,90.8,155.8z"/>
			<path class="st1" d="M90.7,154.4c0,0.3-0.3,0.8-0.2,1.3l0.1,0C90.4,155.5,91,154.7,90.7,154.4z"/>
			<path class="st1" d="M92.5,148.6l-0.1,1.2c0.2-0.2,0.4-0.5,0.4,0.1C93.2,148.4,92.4,150.2,92.5,148.6z"/>
			<path class="st1" d="M92.8,145.1c0.1,0.6,0.2,0,0.3,0C93,144.7,93,144.6,92.8,145.1z"/>
			<path class="st1" d="M79,124.3l0.2-0.3C78.7,123.9,79.1,124.1,79,124.3z"/>
			<polygon class="st1" points="73.7,124.7 74.1,125 74.4,124.8 			"/>
			<path class="st1" d="M71.9,121.4l0.2,0c-0.2,0-0.4-0.1-0.6-0.2L71.9,121.4z"/>
			<path class="st1" d="M66.6,81.7l-0.4,0.2C66.3,82.3,66.8,82.4,66.6,81.7z"/>
			<path class="st1" d="M59.1,67.9c-0.2-0.2-0.7-0.4-1.1-0.1C58.4,67.8,58.9,68,59.1,67.9z"/>
			<polygon class="st1" points="31.5,97.3 31.4,96.9 31.4,97.6 			"/>
		</g>
	</g>
	<g>
		<path class="st1" d="M40.4,60.5C40.4,60.5,40.3,60.6,40.4,60.5L40.4,60.5L40.4,60.5z"/>
		<path class="st1" d="M40.2,60.7c0.1,0,0.2-0.1,0.3-0.2C40.4,60.6,40.5,60.6,40.2,60.7c0-0.1,0.1-0.1,0.2-0.1c0,0,0,0-0.1,0
			C40.2,60.7,40.2,60.7,40.2,60.7C40.3,60.7,40.2,60.7,40.2,60.7z"/>
		<path class="st1" d="M40.8,62.1L40.8,62.1C40.8,62.1,40.8,62.1,40.8,62.1z"/>
		<path class="st1" d="M41.2,62.9C41.2,62.9,41.2,62.9,41.2,62.9C41.2,62.9,41.2,62.9,41.2,62.9z"/>
		<path class="st1" d="M41.1,63.1C41.1,63.1,41.1,63.1,41.1,63.1C41.1,63.1,41.1,63.2,41.1,63.1z"/>
		<path class="st1" d="M40.8,62.1L40.8,62.1C40.8,62.1,40.8,62.1,40.8,62.1z"/>
		<path class="st1" d="M40.7,60.7C40.7,60.7,40.6,60.7,40.7,60.7C40.6,60.7,40.6,60.7,40.7,60.7C40.7,60.7,40.7,60.7,40.7,60.7z"/>
		<path class="st1" d="M40.5,61.8L40.5,61.8C40.4,61.9,40.4,61.9,40.5,61.8L40.5,61.8z"/>
		<path class="st1" d="M40.3,61.6c0,0,0.1-0.1,0.2-0.1C40.4,61.5,40.4,61.5,40.3,61.6C40.3,61.6,40.3,61.6,40.3,61.6z"/>
		<path class="st1" d="M40.2,61.1L40.2,61.1C40.2,61.1,40.2,61.1,40.2,61.1z"/>
		<path class="st1" d="M40.6,62C40.5,62.1,40.5,62.1,40.6,62C40.5,62.1,40.6,62.1,40.6,62z"/>
		<path class="st1" d="M46.1,68.7C46.1,68.7,46.1,68.7,46.1,68.7C46.1,68.7,46.1,68.7,46.1,68.7z"/>
		<path class="st1" d="M45.7,69.3L45.7,69.3C45.7,69.4,45.7,69.4,45.7,69.3L45.7,69.3z"/>
		<path class="st1" d="M41.1,63.5C41.1,63.5,41.1,63.5,41.1,63.5C41.1,63.5,41.1,63.5,41.1,63.5z"/>
		<path class="st1" d="M42.6,65.6c0.1-0.1,0.2,0,0.3-0.2C42.9,65.5,42.7,65.5,42.6,65.6z"/>
		<path class="st1" d="M40.7,60.7C40.7,60.7,40.7,60.7,40.7,60.7C40.7,60.7,40.7,60.7,40.7,60.7z"/>
		<path class="st1" d="M42.9,65.4C42.9,65.4,42.9,65.4,42.9,65.4L42.9,65.4C42.9,65.4,42.9,65.4,42.9,65.4z"/>
		<path class="st1" d="M41.6,64C41.6,64,41.6,64,41.6,64C41.6,64,41.6,64,41.6,64z"/>
		<path class="st1" d="M41.5,63.5L41.5,63.5C41.5,63.5,41.5,63.5,41.5,63.5z"/>
		<path class="st1" d="M41.9,64.1C41.9,64.1,41.9,64.1,41.9,64.1C41.9,64.1,41.9,64.1,41.9,64.1C41.9,64.1,41.9,64.1,41.9,64.1z"/>
		<path class="st1" d="M42,64.3C42,64.3,42,64.3,42,64.3C42,64.3,42,64.3,42,64.3L42,64.3z"/>
		<path class="st1" d="M45.6,68C45.6,68.1,45.5,68.1,45.6,68C45.6,68.1,45.6,68.1,45.6,68z"/>
		<path class="st1" d="M40.6,60.7C40.6,60.7,40.6,60.7,40.6,60.7C40.7,60.7,40.6,60.7,40.6,60.7C40.6,60.7,40.6,60.7,40.6,60.7z"/>
		<path class="st1" d="M42.8,63.5L42.8,63.5C42.8,63.5,42.8,63.5,42.8,63.5z"/>
		<path class="st1" d="M44.6,66.5L44.6,66.5C44.6,66.5,44.6,66.5,44.6,66.5z"/>
		<path class="st1" d="M42.9,63.6C42.9,63.7,42.8,63.7,42.9,63.6C42.8,63.7,42.9,63.7,42.9,63.6L42.9,63.6z"/>
		<path class="st1" d="M45.5,68.1C45.5,68.1,45.5,68.1,45.5,68.1C45.5,68.1,45.5,68.1,45.5,68.1z"/>
		<path class="st1" d="M45.9,68.2c0,0-0.2,0.1-0.3,0.1C45.6,68.3,45.8,68.2,45.9,68.2c-0.1,0-0.3,0.1-0.3,0c0,0,0,0,0.1,0
			c-0.1,0.1-0.1-0.1-0.2,0c0,0,0,0,0,0c-0.1,0.1-0.2,0.1-0.2,0.1c0,0-0.1,0,0,0c0,0,0,0,0.1,0l-0.1,0c0.1-0.1,0.1,0,0.2-0.1
			c-0.1,0-0.2,0-0.2,0c0.1-0.1,0.1,0,0.2-0.1l0,0.1c0.2-0.2,0,0,0.2-0.1c0-0.1-0.1,0-0.1-0.1c-0.1,0-0.1,0.1-0.2,0.1
			c-0.2,0,0.3-0.3,0.1-0.2c-0.1,0-0.3,0.2-0.2,0.1l0.2-0.1c0-0.1-0.2,0.1-0.2,0c0.1,0,0.1,0,0.1,0c0.1-0.1-0.1,0-0.1,0l0.1-0.1
			c-0.1,0-0.2,0-0.3-0.1c0,0,0.1,0,0.1-0.1c-0.1,0-0.1-0.2,0-0.3l-0.1,0.1c0,0,0,0,0.1-0.1c0-0.1-0.1,0-0.1,0.1c0,0,0.1-0.1,0.1-0.1
			c-0.1,0-0.3,0-0.2-0.1l0,0c0-0.1-0.3,0.1-0.2,0l0,0c0-0.1-0.2-0.1,0-0.3c-0.2,0.1,0-0.1-0.2,0c0.1-0.1,0.1-0.1,0.2-0.3
			c0,0-0.2,0.1-0.2,0.1l0.1-0.1l-0.2,0.1l0.1-0.1l0,0c0,0,0,0.1-0.1,0.1c-0.1,0,0-0.1,0.1-0.2l-0.2,0c0.1,0,0.1,0,0.1,0
			c-0.2,0,0.1-0.1,0-0.1c0,0-0.1,0-0.1,0.1c0.1-0.1,0-0.1,0-0.1l0.1-0.1c0-0.1-0.1-0.1-0.2-0.2c0,0-0.2,0.1-0.2,0.1l0.1-0.1
			c-0.1,0,0,0.1-0.2,0.1c0,0,0.1-0.1,0.2-0.1l-0.1,0c0,0,0.1,0,0.1-0.1c-0.1,0,0.1-0.1-0.1-0.1l0,0c0-0.1-0.1-0.1-0.1-0.1
			c-0.1,0.1-0.1,0-0.2,0.1c0-0.1,0.1-0.2,0-0.2c-0.1,0-0.1,0.1-0.2,0.1c0.1-0.1,0.1-0.1,0.2-0.1c-0.1,0-0.1-0.1-0.2-0.1
			c0,0-0.1,0.1-0.1,0.1c0,0,0-0.1,0.1-0.1l0,0c-0.2,0,0.2-0.4-0.1-0.3l0,0l-0.2,0c0,0,0.1,0,0.1-0.1c-0.2,0,0-0.1-0.2-0.1
			c0.3-0.2-0.1-0.1,0-0.3l-0.1,0.1c-0.1,0,0,0,0-0.1c-0.1,0-0.1,0.1-0.1,0.1c-0.2-0.1-0.1-0.3-0.1-0.5c0-0.1-0.4,0.2-0.3,0l0.1-0.1
			c-0.2,0-0.1-0.2-0.3-0.2c0,0,0.1,0,0.1,0c0.1-0.1,0-0.1-0.1,0c0,0,0.1-0.1,0.1-0.1c0-0.1-0.2,0-0.1,0c0,0,0,0,0,0
			c-0.1,0,0-0.1-0.1,0c0-0.1-0.1,0,0-0.1c-0.1,0.1,0-0.1-0.2,0c0.2-0.1,0.1-0.2,0-0.1c0.1,0,0-0.1,0.1-0.1c0,0-0.1,0-0.2,0
			c0.2-0.2-0.2,0,0-0.2c-0.2,0-0.3,0-0.4-0.1c0.2-0.1,0.1,0.1,0.3-0.1c-0.1,0-0.3,0.1-0.3,0c0,0,0.1,0,0.1-0.1
			c-0.1,0-0.1-0.1-0.2-0.1c0,0,0,0,0.1,0c0,0,0,0-0.1,0l0,0c-0.1,0.1-0.3,0.1-0.4,0.2c0.3-0.1,0-0.1,0.4-0.3c0,0-0.1,0-0.1,0.1
			c0,0,0,0,0.1-0.1c-0.1,0-0.2,0.1-0.2,0c0,0,0.1,0,0.1-0.1c-0.1,0-0.2,0.1-0.2,0c0,0,0.1,0,0.1,0c0,0-0.3,0-0.2-0.1
			c0.2-0.1,0-0.1,0.2-0.2l-0.1,0l-0.1,0.1c0,0-0.1,0-0.1,0l0.1,0l-0.1,0l0,0.1c-0.1,0-0.2,0.1-0.2,0.1c0,0,0,0,0.1-0.1c0,0,0,0,0,0
			c-0.1,0-0.1,0-0.1,0c0,0,0.2-0.1,0.2-0.1c-0.1,0.1-0.1,0-0.2,0c0,0,0.1-0.1,0.1-0.1l-0.1,0.1c0,0,0,0,0.1-0.1c0-0.1-0.2,0.1-0.1,0
			c0,0,0,0,0,0c0-0.1-0.1,0-0.1-0.1c0.1-0.1,0.1,0,0.2-0.1c-0.1,0-0.3,0-0.3-0.1l0,0c-0.2,0.1,0.1-0.1,0-0.1c0,0,0.1-0.1,0.1-0.1
			c0-0.1-0.1,0-0.2-0.1l0.1,0c0-0.1,0-0.1,0-0.1c-0.1,0-0.1,0-0.1,0.1c0.3-0.3-0.3,0,0-0.3c0,0,0.1,0,0.1,0l-0.1,0
			c-0.1,0.1-0.1,0-0.1,0.1c-0.1,0-0.1,0-0.1,0c0.1,0,0.2-0.1,0.2-0.1c0,0-0.1,0-0.1,0.1c0.2-0.1-0.2,0.1-0.1,0l0.1,0
			c0,0-0.1,0-0.1,0c0.1-0.1,0.1,0,0.2-0.1c0,0-0.2,0.1-0.1,0c0,0,0,0,0.1,0c0.1-0.1,0.1-0.1,0.1-0.1l0,0l0-0.1l0,0
			c-0.3,0.2-0.1,0-0.3,0.1c0.2-0.1,0.1-0.1,0.2-0.1c0,0,0.1-0.1,0.1-0.1c-0.1,0,0.1-0.1-0.1,0c0,0,0,0,0.1-0.1c0,0-0.1,0.1-0.1,0.1
			c-0.2,0.1,0.1-0.2-0.1-0.1c-0.1,0-0.3,0.1-0.4,0.1c0.1-0.1,0.2-0.1,0.2-0.1c0-0.1,0-0.1,0-0.1c0,0,0.1,0,0.1-0.1
			c0,0-0.2,0.1-0.1,0c0,0,0.1-0.1,0.2-0.1c-0.1,0-0.1,0-0.2,0c0.1-0.1,0.1-0.1,0.2-0.1c0,0-0.1,0-0.2,0l0,0c0,0,0.1-0.1,0.1-0.1
			c0.1,0,0,0.1-0.1,0.1l0,0c-0.2,0.2,0.1,0,0.1,0.1l-0.2,0.1l0.2-0.1c0,0-0.1,0.1-0.2,0.1c-0.1,0.1,0.1,0,0,0.1c0,0,0,0,0,0l0.1,0
			c0,0-0.1,0.1-0.1,0.1c-0.1,0.1,0.2,0,0.1,0.1l0,0c0.1,0,0.1-0.1,0.3-0.1l-0.3,0.2l0.1-0.1c0,0,0,0-0.1,0.1c0.1,0,0.1,0,0.1-0.1
			c-0.1,0.1,0.1,0-0.1,0.2c0.1-0.1,0.1-0.1,0.1-0.1c-0.2,0.2,0.1,0,0,0.1c-0.1,0.1-0.1,0-0.2,0.1c0.2-0.1,0,0.1,0,0.1
			c0.2-0.1,0.1,0,0.2,0c-0.1,0,0,0.1-0.1,0.2l0,0c0.2-0.1,0.2,0,0.2,0c-0.1,0.1-0.1,0.1-0.2,0.1l0,0c0.1,0,0.1,0,0.1,0l-0.1,0.1
			c0,0,0.2,0,0.1,0.1c0.1-0.1,0.3-0.2,0.4-0.2c-0.1,0-0.2,0.1-0.2,0.1c0,0,0.1,0,0,0l-0.1,0c0,0,0.1,0,0.1,0c-0.1,0.1-0.1,0-0.1,0.1
			c0,0,0,0,0,0c0,0,0,0.1-0.1,0.1c0,0,0.1-0.1,0.1-0.1c0,0-0.1,0.1-0.1,0.1c0.1,0,0,0,0.1-0.1c0,0-0.1,0-0.1,0.1
			c0.1,0,0.1,0.1,0.2,0l0,0c0,0,0,0,0,0c0,0,0,0,0,0l0,0c0.2,0,0,0.2,0.1,0.2l0,0c0.1,0,0.1,0.1,0.2,0c0,0-0.1,0.1-0.1,0.1
			c0,0,0.1,0,0,0.1c-0.1,0-0.1,0-0.1,0c0,0.1-0.1,0.1,0.1,0.1c-0.1,0.1-0.1,0.1-0.1,0.1l0.1-0.1c0,0,0,0,0,0l-0.1,0.1
			c-0.1,0.2,0.4-0.1,0.1,0.2c0.1,0,0-0.1,0.2-0.1c0,0-0.2,0.2-0.2,0.2c-0.1,0.1,0.2-0.1,0.2,0c0,0,0.2-0.1,0.2-0.1
			c0,0-0.2,0.2-0.2,0.2c0,0,0,0,0,0c0,0-0.1,0-0.1,0.1l0.1,0c0,0,0,0.1-0.1,0.1c0.1,0,0.1,0,0.1-0.1c0,0.1,0,0.1,0,0.1
			c0,0,0.1-0.1,0.1-0.1c0,0.1,0.1,0,0.2,0c-0.1,0.1-0.2,0.1-0.1,0.1c0,0.1-0.1,0.1-0.2,0.1c0.1,0,0,0.1,0,0.1l-0.1,0c0,0,0,0,0,0
			l0.1-0.1c0,0,0,0,0,0.1c0.1,0,0.2-0.1,0.3-0.2c0,0,0.1,0,0,0.1c0-0.1-0.1,0.1-0.2,0.1c0,0,0,0,0,0c0,0,0,0,0,0
			c-0.1,0.1,0.2-0.1,0.2,0c-0.1,0-0.1,0.1-0.1,0.1c0,0,0.1-0.1,0.2-0.1c0,0.1,0.1,0,0.1,0l0,0c0.1,0,0.1,0,0.1,0c-0.1,0-0.1,0-0.1,0
			c0.1-0.1-0.1,0.1,0,0.1c0,0-0.1,0.1-0.2,0.1c0.1,0-0.1,0.1,0,0.1c0.1-0.1,0.1-0.1,0.2-0.1l-0.1,0l0.2-0.1c0,0-0.1,0-0.1,0
			c0.1,0,0.1,0,0.1-0.1c-0.1,0.1,0.1,0,0,0.1l-0.2,0.2c-0.1,0.1,0.2,0,0.2,0.1l0,0c0.1-0.1,0,0,0.1,0c-0.1,0.1-0.1,0.1-0.2,0.1
			c0.1,0,0,0,0.2-0.1L41.7,64c0,0.1,0.3-0.1,0.3,0c-0.1,0-0.1,0.1-0.2,0.1c0,0,0,0,0.1,0c0,0,0.1,0,0.1,0c0,0,0.1-0.1,0.1-0.1
			c0,0,0,0,0,0c0,0,0.1,0,0.2-0.1c-0.2,0.2,0.1,0.1-0.1,0.3c0,0,0.1,0,0.1,0.1c0,0,0,0,0,0c-0.1,0.1,0.3-0.1,0.2,0
			c-0.1,0.1-0.1,0-0.1,0.1c-0.3,0.2,0.1,0-0.1,0.2l0,0c-0.1,0.1,0.1,0,0.1,0c0,0,0,0,0,0c0.2-0.1,0.2,0,0.3,0
			c-0.1,0.1-0.1,0-0.2,0.1c0,0,0.2-0.1,0.2-0.1c-0.1,0-0.1,0.1-0.2,0.2l0,0c-0.1,0.1,0,0,0,0.1l-0.1,0c0.1,0,0.2-0.1,0.2,0l0,0
			c0.2-0.1-0.1,0.1,0.1,0L42.5,65c0.1,0,0.2,0,0.3,0C42.6,65,42.5,65,42.4,65c0,0,0.1,0.1,0.1,0c0,0-0.1,0,0,0
			c0.1-0.1,0.2-0.1,0.2,0c-0.3,0.2,0,0.1-0.3,0.3c0.2,0,0,0.2,0.1,0.2c0.2-0.2,0,0,0.3-0.2c0,0,0,0,0,0l-0.1,0.2
			c-0.1,0.1-0.1,0-0.1,0.1c0,0.1-0.1,0.1-0.1,0.2c0.1-0.1,0.1-0.1,0.1,0l0.1-0.1c0.2,0-0.2,0.2,0,0.2l-0.1,0c0.1,0,0.1,0.1,0.3,0
			c0,0-0.1,0.1-0.1,0.1c0,0.1,0.3,0,0.2,0.1l-0.1,0c0,0,0.1-0.1,0.1,0c0,0-0.1,0-0.1,0c0,0,0.1,0,0.1,0l-0.1,0c0,0.1,0.2,0,0.3,0
			c-0.2,0.1-0.2,0.2-0.2,0.3l0,0c0,0.1,0.2,0,0.4,0.1c-0.2,0.2,0,0.2-0.1,0.3c0,0,0.1-0.1,0.2-0.1c0,0,0.2,0,0,0.1l0,0
			C43.3,67,43.4,67,43.4,67l0.2-0.1c-0.3,0.3,0.2,0.1,0,0.3c0.1,0,0.1,0,0.1,0l-0.1,0.1c0,0.1,0,0.1,0.1,0.1l-0.1,0
			c0,0,0.4-0.2,0.4-0.2l-0.2,0.1c0,0.1-0.1,0.2,0.1,0.2c0,0-0.1,0-0.1,0c0,0-0.1,0.2,0.2,0c-0.2,0.1,0,0.1,0.1,0.1L44,67.8
			c0.2-0.1,0.2-0.1,0.3-0.1c0,0-0.1,0.1-0.1,0c0,0.1,0.1,0,0.1,0l-0.1,0c0,0,0,0,0.1,0c0.1,0,0,0.1-0.1,0.1c0.1,0,0.2-0.1,0.1,0
			c0,0-0.1,0-0.1,0c0,0.1,0.2,0,0.1,0.1c0,0-0.1,0-0.1,0.1c0,0,0-0.1,0-0.1c-0.1,0.1-0.1,0.1-0.3,0.2c0.1,0,0.3-0.1,0.3,0
			c0,0,0,0,0,0l0,0c0,0,0,0,0,0c0,0,0,0,0,0c-0.1,0.1,0,0.1,0,0.1c0.1-0.1,0.1,0,0.2-0.1c0,0,0,0,0,0c0,0,0,0,0,0c0,0,0,0,0,0
			c0,0,0,0,0,0c0.1,0,0.1,0,0.1,0c0.1,0,0.2-0.1,0.2-0.1c-0.2,0.1-0.2,0.2-0.3,0.3c0.1,0,0.1,0.1,0.4,0c0,0-0.1,0.1-0.1,0.1
			c0,0,0,0-0.1,0c0.1,0,0.1,0.1,0.2,0c0,0.1-0.2,0.1-0.1,0.1l-0.1,0c-0.2,0.3,0.5-0.1,0.2,0.2c0,0,0,0,0,0c-0.1,0.2,0.3,0.2,0.1,0.4
			c0,0.1,0.1,0,0.2,0l-0.1,0.1l0.2-0.1c0.1,0-0.3,0.3,0,0.2l0.1-0.1c0,0,0.1,0,0,0.1c0,0,0.1-0.1,0.1,0l-0.1,0l0.1,0
			c0,0.1-0.3,0.2-0.2,0.2c0,0,0.2-0.1,0.3-0.1c0,0,0-0.1,0.1-0.1l0,0c0.2-0.1,0.4-0.2,0.5-0.4l-0.1,0l0.1-0.1l0,0c0.1-0.1,0,0-0.1,0
			c0,0,0.1-0.1,0.1-0.1L46,69c0.1-0.1,0.2-0.1,0.2-0.1c-0.1,0-0.2,0.1-0.2,0.1c0.1-0.1,0.2-0.1,0.1-0.1c0,0,0.1-0.1,0.1-0.1
			c-0.1,0-0.1,0-0.2,0c0.1-0.1-0.1,0,0.1-0.2c0,0-0.2,0.1-0.2,0.1c0.2-0.1,0-0.1,0.2-0.2c-0.2,0.1-0.1,0-0.3,0c0,0,0.1,0,0,0
			c0,0,0.1-0.1,0.1-0.1c-0.2,0.1-0.2,0.1-0.3,0.1c0.1-0.1,0.2-0.1,0.4-0.2c-0.1,0.1-0.2,0-0.3,0.1c0.1-0.1,0,0,0.2-0.1
			c-0.2,0.1,0,0-0.2,0.1c0.1-0.1,0.2-0.1,0.1-0.1C45.9,68.2,45.9,68.2,45.9,68.2z M45.1,67.6C45.1,67.6,45.1,67.6,45.1,67.6
			C45.1,67.6,45.1,67.6,45.1,67.6C45.1,67.6,45.1,67.6,45.1,67.6z M45,67.5C45,67.6,45,67.6,45,67.5C45,67.6,45,67.6,45,67.5
			C45,67.6,45,67.6,45,67.5z M44.3,68.2C44.3,68.2,44.3,68.2,44.3,68.2C44.3,68.2,44.3,68.2,44.3,68.2
			C44.4,68.2,44.4,68.2,44.3,68.2C44.3,68.2,44.3,68.2,44.3,68.2z"/>
		<path class="st1" d="M44.5,68.1C44.5,68.1,44.5,68.1,44.5,68.1C44.5,68.1,44.5,68.1,44.5,68.1C44.5,68.1,44.5,68.1,44.5,68.1
			C44.5,68.1,44.5,68.1,44.5,68.1z"/>
		<path class="st1" d="M40.8,62.1L40.8,62.1C40.8,62.1,40.8,62.1,40.8,62.1C40.8,62.1,40.8,62.1,40.8,62.1z"/>
		<polygon class="st1" points="44.7,66.5 44.6,66.5 44.7,66.5 		"/>
		<path class="st1" d="M41,61.5C41,61.5,41,61.4,41,61.5C41,61.4,41,61.5,41,61.5z"/>
		<path class="st1" d="M40.9,61.3L40.9,61.3C40.9,61.3,40.9,61.3,40.9,61.3z"/>
		<path class="st1" d="M40.9,61.1C40.9,61.1,40.9,61.2,40.9,61.1C40.8,61.2,40.8,61.2,40.9,61.1L40.9,61.1z"/>
		<path class="st1" d="M42.3,62.9C42.3,63,42.3,63,42.3,62.9C42.3,62.9,42.3,62.9,42.3,62.9z"/>
		<path class="st1" d="M41.6,62.6C41.6,62.6,41.7,62.5,41.6,62.6C41.7,62.5,41.7,62.5,41.6,62.6z"/>
		<polygon class="st1" points="42.8,63.5 42.8,63.5 42.8,63.5 		"/>
		<path class="st1" d="M41.7,62.6C41.7,62.5,41.7,62.5,41.7,62.6C41.7,62.6,41.7,62.6,41.7,62.6z"/>
		<path class="st1" d="M40.6,60.6L40.6,60.6C40.6,60.6,40.6,60.6,40.6,60.6L40.6,60.6z"/>
		<path class="st1" d="M40.6,60.6L40.6,60.6C40.6,60.6,40.6,60.6,40.6,60.6z"/>
		<path class="st1" d="M40.5,60.6L40.5,60.6C40.6,60.6,40.6,60.6,40.5,60.6z"/>
		<path class="st1" d="M40.7,60.8L40.7,60.8C40.7,60.8,40.7,60.8,40.7,60.8z"/>
		<path class="st1" d="M40.7,60.8C40.7,60.8,40.8,60.7,40.7,60.8L40.7,60.8C40.8,60.7,40.6,60.9,40.7,60.8z"/>
		<path class="st1" d="M40.3,61.4L40.3,61.4c0,0-0.1,0-0.1,0C40.1,61.5,40.3,61.3,40.3,61.4z"/>
		<path class="st1" d="M40.3,61.5C40.3,61.5,40.3,61.6,40.3,61.5C40.3,61.6,40.3,61.6,40.3,61.5z"/>
		<path class="st1" d="M40.9,62.4l-0.1,0.1C40.8,62.5,40.8,62.5,40.9,62.4z"/>
		<polygon class="st1" points="41.6,62.2 41.6,62.2 41.5,62.2 		"/>
		<polygon class="st1" points="40.9,62.8 40.8,62.8 40.9,62.8 		"/>
		<path class="st1" d="M41.9,64.3l0.1-0.1C42,64.2,41.8,64.3,41.9,64.3z"/>
		<path class="st1" d="M42.4,64.9C42.4,65,42.4,65,42.4,64.9C42.4,64.9,42.5,64.9,42.4,64.9z"/>
		<polygon class="st1" points="43.5,67 43.5,67 43.5,67 		"/>
	</g>
	<g>
		<path class="st1" d="M56.4,55.1c0,0-0.2-0.1-0.2,0L56.4,55.1L56.4,55.1z"/>
		<path class="st1" d="M56,55.1c0.1,0.1,0.2,0.2,0.4,0.2c-0.2-0.1-0.1-0.1-0.3-0.2c0,0,0.1,0,0.2,0c0,0,0.1,0-0.1-0.1
			c-0.2,0-0.2,0-0.1,0.1C56,55.2,56,55.1,56,55.1z"/>
		<path class="st1" d="M54.8,57.1L54.8,57.1C54.8,57.1,54.8,57.1,54.8,57.1z"/>
		<path class="st1" d="M54.2,58.3C54.2,58.3,54.2,58.3,54.2,58.3C54.2,58.3,54.2,58.3,54.2,58.3z"/>
		<path class="st1" d="M53.9,58.4C53.9,58.4,53.9,58.4,53.9,58.4C53.9,58.4,53.9,58.4,53.9,58.4z"/>
		<path class="st1" d="M54.8,57.1L54.8,57.1C54.8,57.1,54.8,57.1,54.8,57.1z"/>
		<path class="st1" d="M56.3,55.6C56.3,55.6,56.3,55.6,56.3,55.6C56.3,55.6,56.3,55.6,56.3,55.6C56.3,55.6,56.3,55.6,56.3,55.6z"/>
		<path class="st1" d="M54.9,56.4L54.9,56.4C54.9,56.4,54.8,56.4,54.9,56.4L54.9,56.4z"/>
		<path class="st1" d="M55,56c0,0,0.2,0.1,0.2,0.1c-0.1,0-0.1-0.1-0.1-0.1C55.1,56,55.1,56,55,56z"/>
		<path class="st1" d="M55.6,55.4L55.6,55.4C55.6,55.4,55.6,55.4,55.6,55.4z"/>
		<path class="st1" d="M54.7,56.7C54.7,56.7,54.7,56.7,54.7,56.7C54.7,56.7,54.7,56.7,54.7,56.7z"/>
		<path class="st1" d="M51.2,69.4C51.2,69.4,51.2,69.4,51.2,69.4C51.2,69.4,51.2,69.4,51.2,69.4z"/>
		<path class="st1" d="M50.2,69.6L50.2,69.6c0,0-0.1,0-0.1,0L50.2,69.6z"/>
		<path class="st1" d="M53.5,58.7C53.5,58.7,53.5,58.7,53.5,58.7C53.5,58.7,53.5,58.7,53.5,58.7z"/>
		<path class="st1" d="M52.2,62.5c0.2,0,0.2,0.1,0.4,0.1C52.5,62.6,52.3,62.5,52.2,62.5z"/>
		<path class="st1" d="M56.3,55.6C56.3,55.6,56.3,55.6,56.3,55.6C56.3,55.6,56.3,55.6,56.3,55.6z"/>
		<path class="st1" d="M52.6,62.6C52.6,62.6,52.6,62.6,52.6,62.6L52.6,62.6C52.6,62.6,52.6,62.6,52.6,62.6z"/>
		<path class="st1" d="M53.3,59.7C53.3,59.7,53.3,59.7,53.3,59.7C53.3,59.7,53.3,59.7,53.3,59.7z"/>
		<path class="st1" d="M53.8,59.1L53.8,59.1C53.8,59.1,53.8,59.1,53.8,59.1z"/>
		<path class="st1" d="M53.4,60.2C53.4,60.2,53.3,60.2,53.4,60.2C53.4,60.2,53.4,60.2,53.4,60.2C53.4,60.2,53.3,60.2,53.4,60.2z"/>
		<path class="st1" d="M53.2,60.5C53.2,60.5,53.3,60.5,53.2,60.5C53.3,60.5,53.3,60.5,53.2,60.5L53.2,60.5z"/>
		<path class="st1" d="M51.6,68.2c-0.1,0-0.1,0-0.2,0C51.6,68.2,51.6,68.3,51.6,68.2z"/>
		<path class="st1" d="M56.2,55.6C56.3,55.6,56.3,55.6,56.2,55.6C56.3,55.6,56.3,55.6,56.2,55.6C56.3,55.6,56.3,55.6,56.2,55.6z"/>
		<path class="st1" d="M54.7,60.7L54.7,60.7C54.7,60.7,54.7,60.7,54.7,60.7z"/>
		<path class="st1" d="M52.6,65.5L52.6,65.5C52.6,65.6,52.6,65.5,52.6,65.5z"/>
		<path class="st1" d="M54.6,60.9c-0.1,0-0.1,0-0.1,0C54.5,60.9,54.5,60.9,54.6,60.9L54.6,60.9z"/>
		<path class="st1" d="M51.4,68.2C51.4,68.2,51.4,68.2,51.4,68.2C51.4,68.2,51.4,68.2,51.4,68.2z"/>
		<path class="st1" d="M51.7,68.7c0-0.1-0.2-0.1-0.3-0.2c0-0.1,0.2,0,0.3,0.1c0-0.1-0.2-0.2-0.2-0.2c0,0,0.1,0,0.1,0
			c-0.2-0.1,0-0.1-0.2-0.3c0,0,0,0,0.1,0c-0.1,0-0.2-0.1-0.3-0.1c0,0-0.1-0.1,0-0.1c0,0,0,0,0.1,0.1L51.2,68
			c0.2,0.1,0.1,0.1,0.2,0.1c0-0.1-0.2-0.2-0.1-0.2c0.2,0.1,0,0.1,0.2,0.1l-0.1,0c0.3,0.1,0,0,0.3,0.1c0.1-0.1-0.1-0.1,0-0.2
			c-0.1-0.1-0.2-0.1-0.3-0.1c-0.2-0.2,0.6,0.1,0.3-0.1c-0.1-0.1-0.4-0.2-0.2-0.2l0.2,0.1c0.1-0.1-0.3-0.2-0.1-0.2
			c0.1,0.1,0.1,0.1,0.1,0.1c0.2,0-0.1-0.1-0.1-0.1l0.2,0.1c0-0.1-0.1-0.2-0.1-0.4c0.1,0,0.1,0.1,0.2,0.1c-0.1-0.2,0.1-0.2,0.3-0.3
			l-0.2-0.1c0,0,0.1,0,0.1,0c0.1,0-0.1,0-0.2-0.1c0,0,0.1,0,0.2,0c-0.1-0.1-0.2-0.3,0-0.4l0,0c0.1,0-0.3-0.2-0.1-0.2l0,0
			c0.1-0.1,0-0.3,0.3-0.3c-0.2-0.1,0.2-0.1-0.2-0.2c0.2,0,0.3,0,0.4,0c0,0-0.2-0.1-0.2-0.2l0.2,0.1l-0.2-0.1l0.2,0.1l0-0.1
			c0,0-0.1,0-0.1,0c-0.1-0.1,0.2-0.1,0.3,0l-0.1-0.2c0.1,0,0.1,0.1,0.1,0.1c-0.2-0.1,0.2,0.1,0.1-0.1c0,0-0.1,0-0.1-0.1
			c0.1,0,0.2-0.1,0.1-0.1l0.1,0.1c0.1-0.1,0-0.2,0.1-0.3c-0.1,0-0.3-0.1-0.3-0.1l0.2,0.1c-0.1-0.1-0.1,0-0.2-0.1
			c0,0,0.2,0.1,0.3,0.1l0-0.1c0.1,0,0.1,0,0.2,0.1c-0.1-0.1,0.2,0,0-0.1l0.1,0c0-0.1,0-0.2,0-0.3c-0.2-0.1-0.1-0.1-0.2-0.2
			c0.1,0,0.2-0.1,0.3-0.1c-0.1-0.1-0.1-0.1-0.2-0.1c0.2,0.1,0.2,0,0.3,0.1c0-0.1,0-0.1-0.1-0.3c-0.1,0-0.1,0-0.2,0c0,0,0.1,0,0.2,0
			l0,0c-0.2-0.2,0.6-0.1,0.3-0.3l0,0l-0.1-0.2c0,0,0.1,0.1,0.2,0.1c-0.2-0.2,0.1-0.2,0-0.3c0.5,0.1,0.1-0.3,0.4-0.3l-0.1,0
			c-0.1-0.1,0.1,0,0.1,0c-0.1,0-0.1,0-0.2,0c0-0.3,0.3-0.4,0.5-0.6c0.1-0.1-0.5-0.3-0.2-0.3l0.2,0.1c-0.2-0.3,0.1-0.3,0-0.6
			c0,0,0.1,0.1,0.1,0.1c0.2,0,0.1-0.1-0.1-0.2c0,0,0.1,0,0.2,0c0.1,0-0.2-0.2,0-0.1c0,0,0,0,0.1,0c-0.1,0,0.1-0.1-0.1-0.1
			c0.1,0,0-0.1,0.1-0.2c-0.2-0.1,0.1-0.1-0.1-0.2c0.3,0.1,0.3,0,0.1-0.1c0.1,0,0.1,0,0.2,0.1c0,0,0-0.1-0.2-0.2
			c0.4,0-0.2-0.3,0.2-0.1c-0.1-0.2-0.1-0.3-0.2-0.5c0.3,0.1,0,0.1,0.3,0.2c-0.1-0.2-0.3-0.3-0.2-0.4c0,0,0.1,0.1,0.2,0.1
			c-0.1-0.2,0.1-0.2,0-0.4c0,0,0,0,0.1,0c0,0,0.1,0-0.1-0.1l0,0c-0.2,0-0.3-0.2-0.4-0.3c0.3,0.2,0.1-0.1,0.6,0.2
			c0,0-0.1-0.1-0.2-0.1c0,0,0.1,0,0.2,0.1c0-0.1-0.2-0.1-0.2-0.2c0.1,0,0.1,0,0.1,0.1c-0.1-0.1-0.2-0.2-0.1-0.2c0,0,0.1,0,0.1,0
			c0-0.1-0.3-0.3-0.1-0.3c0.2,0.1,0.1,0,0.3,0.1l0-0.1l-0.1,0c0,0-0.1-0.2,0-0.2l0.1,0.1l0-0.1l-0.1,0c-0.1-0.1-0.3-0.1-0.2-0.1
			c0,0,0,0,0.2,0c0,0,0,0,0,0c-0.1-0.1-0.1-0.1-0.1-0.1c0.1,0,0.2,0.1,0.3,0.1c-0.2-0.1,0-0.1-0.2-0.2c0,0,0.2,0.1,0.2,0.1L55,58.2
			c0.1,0,0.1,0,0.2,0c0.1-0.1-0.3-0.1-0.1-0.1c0,0,0,0,0.1,0c0.1-0.1,0-0.2,0.1-0.2c0.2,0.1,0,0.1,0.2,0.1c0-0.1-0.2-0.3-0.1-0.4
			l0,0c-0.3-0.1,0.2,0,0.1-0.1c0,0,0.2,0.1,0.1,0.1c0.1,0,0-0.2-0.1-0.3l0.1,0c0.1,0,0.1-0.1,0.1-0.1c-0.1,0-0.1-0.1-0.2-0.1
			c0.5,0.1-0.2-0.4,0.3-0.3c0,0,0.1,0.1,0.1,0.1l0-0.1c-0.1,0-0.1,0-0.2,0c-0.1,0-0.1-0.1-0.1-0.1c0.1,0.1,0.2,0.1,0.3,0.1
			c0,0-0.1,0-0.1-0.1c0.3,0-0.3-0.1-0.1-0.1l0.1,0c0,0-0.1-0.1-0.1-0.1c0.2,0.1,0.1,0.1,0.2,0.1c0,0-0.3-0.2-0.1-0.2
			c0,0,0,0.1,0.1,0.1c0.2,0,0.2,0,0.2,0l0,0l0.1,0l-0.1,0c-0.4-0.2,0-0.1-0.3-0.3c0.2,0.2,0.1,0.1,0.3,0.1c0.1,0,0.1,0,0.2,0
			c-0.1-0.1,0.1,0-0.1-0.1c0.1,0,0,0,0.2,0c0-0.1-0.1,0-0.2-0.1c-0.2-0.1,0.3-0.1,0.1-0.3c-0.1-0.1-0.3-0.2-0.3-0.3
			c0.1,0,0.2,0.1,0.2,0.1c0.1,0,0.1,0,0-0.1c0,0,0.1,0,0.2,0.1c0,0-0.2-0.1-0.1-0.1c0.1,0,0.2,0.1,0.2,0.1c0-0.1-0.1-0.1-0.2-0.2
			c0.1,0,0.1,0.1,0.2,0.1c0-0.1,0-0.1-0.2-0.2l-0.1,0c0,0,0.1,0,0.2,0.1c0.1,0.1-0.1,0-0.1,0l0,0c-0.4-0.1,0,0.1,0,0.2l-0.2-0.1
			l0.2,0.1c-0.1,0-0.2-0.1-0.2-0.1c-0.1,0,0.1,0.1-0.1,0c0,0,0,0,0,0l0.1,0.1c-0.1,0-0.2-0.1-0.1-0.1c-0.2,0,0.1,0.2-0.1,0.1l0,0
			c0,0.1,0.2,0.1,0.4,0.2l-0.5-0.1l0.2,0.1c0,0,0,0-0.1,0c0.1,0.1,0.1,0,0.2,0.1c-0.2,0,0,0.2-0.3,0.1c0.1,0.1,0.1,0,0.2,0.1
			c-0.3-0.1,0,0.1-0.1,0.1c-0.2-0.1-0.1-0.1-0.2-0.1c0.3,0.1-0.1,0.1-0.1,0.1c0.2,0.1,0.1,0.1,0.1,0.2c-0.1,0-0.2,0.1-0.3,0.1l0,0
			c0.2,0.1,0.2,0.1,0.2,0.2c-0.1-0.1-0.2-0.1-0.2-0.1l0,0c0.1,0,0.1,0.1,0.1,0.1l-0.2-0.1c0,0.1,0.2,0.2,0,0.2
			c0.2,0.1,0.5,0.1,0.5,0.2c-0.1,0-0.2-0.1-0.3-0.1c0,0,0.1,0,0,0L55,56.7c-0.1,0,0.1,0.1,0.1,0.1c-0.1,0-0.1,0-0.2-0.1
			c0,0,0.1,0,0,0c0,0-0.1,0-0.2,0c0.1,0,0.2,0.1,0.2,0.1c0,0.1-0.2,0-0.2,0c0.1,0,0,0,0.2,0.1c0,0-0.1,0-0.1,0
			c0.1,0.1,0,0.1,0.2,0.2l0,0c0,0,0,0,0,0c0,0,0,0,0,0l0,0c0.1,0.2-0.2,0.1-0.1,0.3l-0.1,0c0,0.1,0,0.1,0.1,0.2c0,0-0.1,0-0.2,0
			c0,0.1,0.1,0.1,0,0.1c-0.1-0.1-0.1,0-0.1-0.1c-0.1,0-0.2,0,0,0.1c-0.1-0.1-0.2,0-0.2,0l0.1,0c0,0,0,0.1,0,0.1l-0.2-0.1
			c-0.3,0,0.3,0.4-0.1,0.3c0.1,0.1,0.1,0,0.3,0.1c0,0-0.4,0-0.4,0c-0.1,0,0.3,0.2,0.2,0.2c0.1,0,0.3,0.1,0.3,0.2
			c0,0-0.3-0.1-0.4-0.1c0,0,0,0,0,0c0,0,0-0.1-0.1-0.1l0.1,0c-0.1,0-0.1,0.1-0.2,0c0.1,0.1,0.1,0.1,0.2,0c-0.1,0,0,0.1-0.1,0.1
			c0,0,0.1,0,0.1,0c-0.1,0.1,0.1,0.1,0.1,0.2c-0.1,0-0.3-0.1-0.2,0c-0.1,0-0.2-0.1-0.2-0.1c0.1,0.1-0.1,0.1-0.2,0.1l0-0.1
			c0,0,0,0,0,0.1l0.2,0c0,0,0,0-0.1,0c0.1,0.1,0.2,0.1,0.4,0.2c-0.1,0,0,0.1-0.1,0c0.1-0.1-0.2-0.1-0.2-0.1c0,0,0,0,0,0c0,0,0,0,0,0
			c-0.2,0,0.2,0.1,0.2,0.2c-0.1-0.1-0.2-0.1-0.2,0c0,0,0.2,0.1,0.3,0.1c-0.1,0,0,0.1,0,0.1l0.1,0c0.1,0.1,0.1,0.1,0.1,0.1
			c-0.1,0,0-0.1-0.1-0.1c0.2,0.1-0.2,0-0.1,0.1c-0.1,0-0.2-0.1-0.3-0.1c0.1,0.1-0.2,0-0.1,0.1c0.2,0,0.1,0,0.2,0.1l-0.1-0.1l0.2,0.1
			c0,0-0.1-0.1,0-0.1c0.1,0.1,0.1,0.1,0.2,0.1c-0.2,0,0.1,0.1-0.1,0.1l-0.4-0.1c-0.2,0,0.1,0.2,0,0.3l0.1,0c0.1,0.1,0,0.1,0,0.1
			c-0.1,0-0.2,0-0.2-0.1c0.1,0,0,0.1,0.2,0.2l-0.2,0c-0.1,0.1,0.3,0.2,0.2,0.3c-0.1-0.1-0.2-0.1-0.3-0.2c0,0,0,0,0,0.1
			c-0.1,0,0.1,0.1,0,0.1c0,0,0.2,0.1,0.2,0.1c0,0-0.1,0-0.1,0c0.1,0,0.1,0.1,0.2,0.1c-0.4-0.1-0.1,0.2-0.4,0.2c0,0.1,0,0.2,0,0.2
			c0,0-0.1,0,0,0c-0.1,0,0.3,0.2,0.2,0.2c-0.2,0-0.1-0.1-0.2-0.1c-0.4-0.1,0,0.1-0.2,0.1l0,0c-0.1,0,0.1,0.2,0.1,0.2c0,0,0,0-0.1,0
			c0.2,0.1,0.2,0.2,0.2,0.3c-0.1-0.1-0.1-0.1-0.2-0.1c0,0,0.3,0.1,0.3,0.2c-0.1,0-0.2,0-0.4-0.1l0-0.1c-0.2-0.1,0,0.1-0.1,0.1
			l-0.1,0c0,0.1,0.2,0.2,0.2,0.3l0.1,0c0.2,0.1-0.1,0,0,0.1l-0.2-0.1c0,0.1,0.2,0.2,0.2,0.3c-0.2-0.1-0.2-0.2-0.3-0.3
			c0,0,0,0.1,0.1,0.2c0,0-0.1-0.1,0-0.1c0.2,0.1,0.2,0.2,0.2,0.3c-0.5-0.2-0.2,0.1-0.6,0c0.1,0.2-0.2,0.2-0.2,0.3
			c0.4,0.1,0,0,0.4,0.2c0,0,0,0,0,0l-0.3,0c-0.1,0-0.1-0.1-0.2-0.1c-0.1,0.1-0.2,0-0.3,0c0.1,0,0.2,0.1,0.1,0.1l0.2,0
			c0.2,0.2-0.3,0-0.2,0.1l-0.1-0.1c0.1,0.1-0.1,0.2,0.2,0.3c0,0-0.2,0-0.2-0.1c-0.1,0.1,0.2,0.4,0,0.4l-0.1,0c0,0,0.2,0.1,0.1,0.1
			c0,0-0.1,0-0.1,0c0,0,0.1,0.1,0.1,0.1l-0.1-0.1c-0.2,0.1,0.2,0.3,0.2,0.4c-0.3-0.1-0.4-0.1-0.4,0l0,0c-0.1,0.1,0.1,0.3,0.2,0.5
			c-0.3,0-0.2,0.2-0.4,0.3c0.1,0,0.2,0.1,0.2,0.1c-0.1,0,0.2,0.1-0.1,0l0,0c-0.2-0.1-0.2,0-0.2,0.1l0.3,0.1
			c-0.5-0.1,0.1,0.4-0.4,0.3c0.1,0.1,0.1,0.1,0.1,0.2l-0.2-0.1C51,65.3,51,65.3,51,65.4l-0.1-0.1c0,0.1,0.5,0.3,0.5,0.3L51,65.6
			c0,0.1-0.3,0.1-0.1,0.3c0,0-0.1,0-0.1-0.1c0,0-0.2,0.1,0.1,0.2c-0.2-0.1-0.1,0.1,0,0.2l-0.2-0.1c0.2,0.1,0.3,0.2,0.3,0.2
			c0,0-0.1,0-0.1,0c-0.1,0,0.1,0.1,0,0.1l-0.1-0.1c0,0,0,0.1,0.1,0.1c0.1,0.1-0.1,0.1-0.2,0c0.1,0,0.2,0.1,0.1,0.1
			c-0.1,0-0.1,0-0.1-0.1c-0.1,0,0.1,0.2,0,0.2c-0.1,0-0.1,0-0.1,0c0-0.1,0.1-0.1,0.1-0.1c-0.2-0.1-0.2,0-0.4-0.1
			c0.1,0.1,0.3,0.3,0.2,0.3c0,0,0,0-0.1,0l0,0c0,0,0,0,0,0c0,0-0.1,0-0.1,0c-0.1,0-0.1,0-0.1,0.1c0.2,0.1,0.1,0.1,0.3,0.1
			c0,0,0,0,0,0c0,0,0,0,0,0c0,0,0,0,0,0c0,0,0,0,0-0.1c0.1,0.1,0.1,0.1,0,0.1c0.1,0.1,0.2,0.1,0.3,0.1c-0.3-0.1-0.4,0-0.6-0.1
			c0.1,0.1,0,0.2,0.3,0.4c0,0-0.1,0-0.2,0c0,0,0,0-0.1-0.1c0.1,0.1,0,0.1,0.2,0.2c-0.1,0-0.2-0.1-0.2,0l-0.1,0
			c-0.4,0,0.5,0.5-0.1,0.5c0,0,0,0,0.1,0c-0.3,0.1,0,0.5-0.4,0.5c-0.1,0,0.1,0.1,0.1,0.2l-0.2-0.1l0.2,0.1c0.1,0.1-0.5,0-0.3,0.2
			l0.1,0c0,0,0,0.1-0.1,0.1c0,0,0.1,0.1,0.1,0.1l-0.1,0l0.1,0.2c-0.1,0-0.4-0.2-0.4-0.1c0,0.1,0.2,0.2,0.3,0.2c0,0,0.1,0,0.2,0
			l0,0.1c0.3,0.1,0.6,0.3,0.8,0.2l-0.1-0.1l0.1,0l0,0.1c0.1,0,0,0,0-0.1c0.1,0,0.1,0,0.2,0l-0.2-0.2c0.1,0,0.2,0.1,0.3,0.1
			c-0.1-0.1-0.3-0.1-0.3-0.1c0.1,0,0.2,0.1,0.1,0c0.1,0,0.1,0,0.1,0.1c-0.1-0.1,0-0.1-0.1-0.2c0.2,0,0-0.1,0.3,0
			c-0.1,0-0.2-0.1-0.2-0.2c0.3,0.2,0.1-0.1,0.4,0.1c-0.3-0.2-0.1-0.2-0.2-0.3c0,0,0.1,0,0,0c0,0,0.1,0,0.2,0
			c-0.2-0.1-0.3-0.2-0.4-0.3c0.2,0,0.3,0.1,0.5,0.2c-0.2-0.1-0.2-0.2-0.3-0.2c0.2,0,0.1,0,0.3,0.1c-0.3-0.1,0-0.1-0.2-0.2
			c0.2,0,0.3,0.1,0.2,0C51.6,68.6,51.7,68.7,51.7,68.7z M51.7,67.2C51.7,67.2,51.7,67.2,51.7,67.2C51.7,67.2,51.7,67.2,51.7,67.2
			C51.7,67.2,51.7,67.2,51.7,67.2z M51.7,67.1C51.7,67.1,51.7,67.1,51.7,67.1c-0.1,0-0.1,0-0.1,0C51.6,67.1,51.7,67.1,51.7,67.1z
			 M50.5,66.9C50.4,66.8,50.5,66.8,50.5,66.9C50.5,66.9,50.5,66.9,50.5,66.9C50.5,66.9,50.5,66.9,50.5,66.9
			C50.5,66.9,50.5,66.9,50.5,66.9z"/>
		<path class="st1" d="M50.7,67C50.7,67,50.7,67,50.7,67C50.7,67,50.7,67,50.7,67C50.7,67,50.7,67,50.7,67C50.7,67,50.7,67,50.7,67z
			"/>
		<path class="st1" d="M54.9,57.1L54.9,57.1C54.9,57.1,54.9,57.1,54.9,57.1C54.9,57.1,54.9,57.1,54.9,57.1z"/>
		<polygon class="st1" points="52.7,65.7 52.6,65.7 52.7,65.7 		"/>
		<path class="st1" d="M55.7,56.7C55.7,56.7,55.7,56.7,55.7,56.7C55.7,56.7,55.7,56.7,55.7,56.7z"/>
		<path class="st1" d="M55.8,56.4L55.8,56.4C55.9,56.4,55.8,56.4,55.8,56.4z"/>
		<path class="st1" d="M56,56.3C56,56.2,55.9,56.2,56,56.3C55.9,56.2,55.9,56.2,56,56.3L56,56.3z"/>
		<path class="st1" d="M54.9,59.6C54.9,59.6,54.9,59.6,54.9,59.6C55,59.6,55,59.6,54.9,59.6z"/>
		<path class="st1" d="M54.9,58.4C54.9,58.5,55,58.5,54.9,58.4C55,58.5,55,58.5,54.9,58.4z"/>
		<polygon class="st1" points="54.7,60.7 54.7,60.7 54.7,60.7 		"/>
		<path class="st1" d="M55,58.5C55,58.5,55,58.5,55,58.5C55,58.5,54.9,58.5,55,58.5z"/>
		<path class="st1" d="M56.4,55.4L56.4,55.4C56.4,55.4,56.4,55.4,56.4,55.4L56.4,55.4z"/>
		<path class="st1" d="M56.4,55.4L56.4,55.4C56.4,55.4,56.4,55.4,56.4,55.4z"/>
		<path class="st1" d="M56.4,55.3L56.4,55.3C56.4,55.4,56.4,55.4,56.4,55.3z"/>
		<path class="st1" d="M56.2,55.7L56.2,55.7C56.3,55.7,56.3,55.7,56.2,55.7z"/>
		<path class="st1" d="M56.2,55.7c0,0,0.2,0,0.1,0L56.2,55.7C56.4,55.7,56.1,55.7,56.2,55.7z"/>
		<path class="st1" d="M55.3,55.8L55.3,55.8c0-0.1-0.1-0.1-0.1-0.1C55,55.7,55.4,55.7,55.3,55.8z"/>
		<path class="st1" d="M55.1,56c0,0-0.1,0-0.1-0.1C55.1,55.9,55.1,56,55.1,56z"/>
		<path class="st1" d="M54.5,57.5l-0.2-0.1C54.4,57.5,54.4,57.4,54.5,57.5z"/>
		<polygon class="st1" points="55.2,58.1 55.3,58.1 55.2,58 		"/>
		<polygon class="st1" points="54.1,57.8 54,57.8 54.1,57.9 		"/>
		<path class="st1" d="M53.1,60.4l0.2,0.1C53.3,60.4,53.1,60.4,53.1,60.4z"/>
		<path class="st1" d="M52.9,61.6C52.8,61.6,52.7,61.6,52.9,61.6C52.8,61.6,52.9,61.6,52.9,61.6z"/>
		<polygon class="st1" points="51.2,64.8 51.2,64.8 51.2,64.8 		"/>
	</g>
</g>
</svg>
