<?xml version="1.0" encoding="utf-8"?>
<!-- Generator: Adobe Illustrator 21.0.0, SVG Export Plug-In . SVG Version: 6.00 Build 0)  -->
<svg version="1.1" id="Layer_1" xmlns="http://www.w3.org/2000/svg" xmlns:xlink="http://www.w3.org/1999/xlink" x="0px" y="0px"
	 viewBox="0 0 1920 634" style="enable-background:new 0 0 1920 634;" xml:space="preserve">
<style type="text/css">
	.st0{fill:#FFE4D9;}
</style>
<polygon class="st0" points="142.8,21.1 261.3,16.3 306.3,7.9 370.8,18.7 496.8,23.5 652.8,17.5 736.8,10.3 798.3,16.3 951.3,19.9 
	1033.8,16.3 1170.3,24.7 1396.8,9.1 1441.8,16.3 1636.8,12.7 1761.3,17.5 1861.8,22.3 1920.2,12.7 1920.2,632 1803.3,622.4 
	1665.3,630.8 1521.3,621.2 1444.8,615.2 1279.8,627.2 1116.3,624.8 976.8,629.6 759.3,616.4 553.8,628.4 442.8,624.8 321.3,629.6 
	108.3,617.6 0.3,628.4 3.3,9.1 "/>
</svg>
