<?xml version="1.0" encoding="utf-8"?>
<!-- Generator: Adobe Illustrator 21.0.0, SVG Export Plug-In . SVG Version: 6.00 Build 0)  -->
<svg version="1.1" id="Layer_1" xmlns="http://www.w3.org/2000/svg" xmlns:xlink="http://www.w3.org/1999/xlink" x="0px" y="0px"
	 viewBox="0 0 152.8 46" style="enable-background:new 0 0 152.8 46;" xml:space="preserve">
<style type="text/css">
	.st0{fill:#FF4081;}
	.st1{fill:#37474F;}
</style>
<g>
	<g>
		<path class="st0" d="M11,45h3.7v-4.2c-1.1-0.5-2.4-1.3-3.7-2.1V45z"/>
		<path class="st0" d="M24.3,45H28v-6.1c-1.3,0.6-2.6,1.1-3.7,1.3V45z"/>
		<path class="st0" d="M47.8,19c0-3.6-1.9-5.7-4-8c-0.3-0.3-0.6-0.7-0.9-1c-0.3-0.4-0.7-0.8-1.1-1.3c-2.6-3.1-5.8-7-9.5-7
			c-4.5,0-8,2.4-10.2,5.9H15c-7.7,0-14,6.1-14,13.7V45h3.7V21.3c0-5.5,4.7-10,10.4-10h5.3c-0.6,1.8-0.9,3.7-0.9,5.5
			c0,7.6,6.2,13.8,13.8,13.8v-3.7c-5.6,0-10.1-4.5-10.1-10.1c0-5.5,3.7-11.4,9.3-11.4c2,0,4.8,3.4,6.7,5.6c0.4,0.5,0.8,0.9,1.1,1.3
			c0.3,0.4,0.6,0.7,0.9,1c2,2.2,3.1,3.5,3.1,5.6c0,4.7-2.9,11.5-7.1,13.7c-2.4,1.3-5.1,2.3-8.9,0.5c-2.5-1.2-4.3-0.8-5.3-0.2
			c-2.3,1.2-2.8,3.8-2.8,4.1l3.6,0.7c0.1-0.3,0.4-1.2,0.9-1.5c0.6-0.3,1.5,0.1,2,0.3c2,1,3.9,1.3,5.5,1.3c1.2,0,2.4-0.2,3.4-0.5V45
			h3.7v-9.2C44.5,32.7,47.8,24.8,47.8,19z"/>
	</g>
	<g>
		<circle class="st1" cx="36.5" cy="24.6" r="1.4"/>
	</g>
	<g>
		<path class="st1" d="M57.4,44.8c-0.9,0-1.7-0.2-2.4-0.5c-0.7-0.3-1.3-0.8-1.8-1.3c-0.5-0.5-0.9-1.1-1.2-1.7
			c-0.3-0.6-0.4-1.2-0.4-1.8v-3.2c0-0.9,0.2-1.7,0.5-2.4c0.3-0.7,0.8-1.3,1.4-1.8c0.6-0.5,1.2-0.9,2-1.1c0.8-0.3,1.6-0.4,2.5-0.4
			h0.6c0.8,0,1.5,0.1,2.2,0.3c0.7,0.2,1.3,0.6,1.8,1s0.9,0.9,1.2,1.5s0.5,1.2,0.5,2c0,0.4-0.1,0.9-0.3,1.3c-0.2,0.4-0.4,0.8-0.8,1.1
			c-0.3,0.3-0.7,0.6-1.2,0.8c-0.5,0.2-1.1,0.3-1.7,0.3l-7.4,0c0,0.8,0.1,1.6,0.4,2.2c0.3,0.6,0.6,1.1,1.1,1.5s1,0.7,1.5,0.8
			c0.6,0.2,1.2,0.3,1.8,0.3h4.5v1.3H57.4z M60.2,37.5c1,0,1.7-0.2,2.2-0.7c0.5-0.4,0.7-1,0.7-1.5c0-0.8-0.2-1.4-0.5-1.8
			c-0.3-0.5-0.8-0.8-1.3-1.1s-1.1-0.4-1.6-0.5c-0.6-0.1-1.1-0.1-1.5-0.1h-0.6c-0.6,0-1.2,0.1-1.7,0.3s-1,0.5-1.4,0.9
			c-0.4,0.4-0.7,0.8-1,1.3S53,35.4,53,36v1.4H60.2z"/>
		<path class="st1" d="M71.7,44.8c-0.6,0-1.1-0.1-1.6-0.3c-0.5-0.2-0.9-0.5-1.3-0.8s-0.7-0.8-0.9-1.3s-0.3-1-0.3-1.6V21.9H69v18.9
			c0,0.7,0.3,1.4,0.8,1.9c0.5,0.5,1.2,0.8,1.9,0.8V44.8z"/>
		<path class="st1" d="M79.5,44.8c-0.9,0-1.7-0.2-2.4-0.5c-0.7-0.3-1.3-0.8-1.8-1.3c-0.5-0.5-0.9-1.1-1.2-1.7
			c-0.3-0.6-0.4-1.2-0.4-1.8v-3.2c0-0.9,0.2-1.7,0.5-2.4c0.3-0.7,0.8-1.3,1.4-1.8c0.6-0.5,1.2-0.9,2-1.1c0.8-0.3,1.6-0.4,2.5-0.4
			h0.6c0.8,0,1.5,0.1,2.2,0.3c0.7,0.2,1.3,0.6,1.8,1s0.9,0.9,1.2,1.5s0.5,1.2,0.5,2c0,0.4-0.1,0.9-0.3,1.3c-0.2,0.4-0.4,0.8-0.8,1.1
			c-0.3,0.3-0.7,0.6-1.2,0.8c-0.5,0.2-1.1,0.3-1.7,0.3l-7.4,0c0,0.8,0.1,1.6,0.4,2.2c0.3,0.6,0.6,1.1,1.1,1.5s1,0.7,1.5,0.8
			c0.6,0.2,1.2,0.3,1.8,0.3h4.5v1.3H79.5z M82.3,37.5c1,0,1.7-0.2,2.2-0.7c0.5-0.4,0.7-1,0.7-1.5c0-0.8-0.2-1.4-0.5-1.8
			c-0.3-0.5-0.8-0.8-1.3-1.1s-1.1-0.4-1.6-0.5c-0.6-0.1-1.1-0.1-1.5-0.1h-0.6c-0.6,0-1.2,0.1-1.7,0.3s-1,0.5-1.4,0.9
			c-0.4,0.4-0.7,0.8-1,1.3S75.1,35.4,75,36v1.4H82.3z"/>
		<path class="st1" d="M88.4,30.4h1.9v-4.6c0-0.6,0.1-1.1,0.4-1.6s0.5-0.9,0.9-1.2c0.4-0.3,0.8-0.6,1.3-0.8c0.5-0.2,1-0.3,1.6-0.3
			c0.6,0,1.1,0,1.5,0c0.4,0,0.7,0,1,0c0.3,0,0.6,0,0.9,0c0.3,0,0.8,0,1.3,0v1.3h-4.8c-0.7,0-1.4,0.3-1.9,0.8
			c-0.5,0.5-0.8,1.1-0.8,1.9v4.5h4.4v1.3h-4.4l0,13.1h-1.4l-0.1-13.1h-1.9V30.4z"/>
		<path class="st1" d="M111.5,40.9c0,0.6-0.1,1.1-0.4,1.6s-0.5,0.9-0.9,1.2s-0.8,0.6-1.3,0.8c-0.5,0.2-1,0.3-1.6,0.3h-5
			c-0.6,0-1.1-0.1-1.6-0.3c-0.5-0.2-0.9-0.5-1.3-0.9s-0.6-0.8-0.8-1.3s-0.3-1-0.3-1.6v-0.2c0-0.7,0.1-1.3,0.4-1.8
			c0.3-0.5,0.6-0.9,1-1.3c0.4-0.3,0.8-0.6,1.3-0.7s0.9-0.2,1.4-0.2c1.3,0,2.5,0,3.7,0c1.2,0,2.5,0,3.9,0v-1.9c0-0.8-0.2-1.4-0.7-2
			c-0.5-0.5-1.1-0.8-1.9-0.9h-7.8v-1.3h7.8c0.5,0,1.1,0.1,1.5,0.3c0.5,0.2,0.9,0.5,1.3,0.8c0.4,0.3,0.6,0.8,0.9,1.2
			c0.2,0.5,0.3,1,0.3,1.5v6.2V40.9z M110.1,40.5l0-2.7h-7.6c-0.7,0-1.4,0.2-1.9,0.7c-0.6,0.4-0.8,1.1-0.8,2c0,0.1,0,0.2,0,0.4
			s0,0.3,0,0.4c0.1,0.7,0.4,1.3,0.9,1.7c0.5,0.4,1.1,0.6,1.8,0.6h5c0.7,0,1.3-0.3,1.8-0.7s0.8-1,0.9-1.8V40.5z"/>
		<path class="st1" d="M126.3,34.6c0,0.8,0,1.8,0,2.9s0,2.1,0,3.2s0,1.9,0,2.7s0,1.3,0,1.5H125V34.6c0-0.8-0.3-1.4-0.8-2
			c-0.5-0.5-1.2-0.8-2-0.8h-3.4c-0.7,0-1.4,0.3-1.9,0.8c-0.5,0.5-0.8,1.1-0.8,1.9v10.4h-1.3l-0.1-14.6h1.2l0.2,1.3
			c0.4-0.3,0.8-0.5,1.2-0.7c0.5-0.2,0.9-0.3,1.5-0.3h3.4c0.4,0,0.9,0.1,1.4,0.2c0.5,0.2,0.9,0.4,1.3,0.7s0.7,0.8,1,1.3
			C126.2,33.2,126.3,33.8,126.3,34.6z"/>
		<path class="st1" d="M132.7,44.5c-0.5-0.2-0.9-0.5-1.3-0.8s-0.6-0.8-0.9-1.3c-0.2-0.5-0.3-1-0.3-1.6V25.2h1.3v5.2h4.1v1.3h-4.1
			v9.1c0,0.7,0.3,1.3,0.8,1.8s1.1,0.8,1.9,0.8h1.4v1.3h-1.4C133.7,44.8,133.2,44.7,132.7,44.5z"/>
		<path class="st1" d="M144.2,44.8c-0.9,0-1.7-0.2-2.4-0.5c-0.7-0.3-1.3-0.8-1.8-1.3c-0.5-0.5-0.9-1.1-1.2-1.7
			c-0.3-0.6-0.4-1.2-0.4-1.8v-3.2c0-0.9,0.2-1.7,0.5-2.4c0.3-0.7,0.8-1.3,1.4-1.8c0.6-0.5,1.2-0.9,2-1.1c0.8-0.3,1.6-0.4,2.5-0.4
			h0.6c0.8,0,1.5,0.1,2.2,0.3c0.7,0.2,1.3,0.6,1.8,1s0.9,0.9,1.2,1.5c0.3,0.6,0.5,1.2,0.5,2c0,0.4-0.1,0.9-0.3,1.3
			c-0.2,0.4-0.4,0.8-0.8,1.1c-0.3,0.3-0.7,0.6-1.2,0.8s-1.1,0.3-1.7,0.3l-7.4,0c0,0.8,0.1,1.6,0.4,2.2s0.6,1.1,1.1,1.5
			s1,0.7,1.5,0.8c0.6,0.2,1.2,0.3,1.8,0.3h4.5v1.3H144.2z M147,37.5c1,0,1.7-0.2,2.2-0.7c0.5-0.4,0.7-1,0.7-1.5
			c0-0.8-0.2-1.4-0.5-1.8c-0.3-0.5-0.8-0.8-1.3-1.1c-0.5-0.2-1.1-0.4-1.6-0.5c-0.6-0.1-1.1-0.1-1.5-0.1h-0.6c-0.6,0-1.2,0.1-1.7,0.3
			c-0.5,0.2-1,0.5-1.4,0.9c-0.4,0.4-0.7,0.8-1,1.3s-0.4,1.1-0.4,1.7v1.4H147z"/>
	</g>
</g>
</svg>
